<?xml version="1.0" encoding="UTF-8" standalone="no"?>
<!-- Created with Inkscape (http://www.inkscape.org/) -->

<svg
   xmlns:dc="http://purl.org/dc/elements/1.1/"
   xmlns:cc="http://creativecommons.org/ns#"
   xmlns:rdf="http://www.w3.org/1999/02/22-rdf-syntax-ns#"
   xmlns:svg="http://www.w3.org/2000/svg"
   xmlns="http://www.w3.org/2000/svg"
   xmlns:sodipodi="http://sodipodi.sourceforge.net/DTD/sodipodi-0.dtd"
   xmlns:inkscape="http://www.inkscape.org/namespaces/inkscape"
   id="svg2"
   version="1.1"
   inkscape:version="0.91 r13725"
   xml:space="preserve"
   width="1000"
   height="1000"
   viewBox="0 0 1000 1000"
   sodipodi:docname="motorcycle-chopper.svg"><metadata
     id="metadata8"><rdf:RDF><cc:Work
         rdf:about=""><dc:format>image/svg+xml</dc:format><dc:type
           rdf:resource="http://purl.org/dc/dcmitype/StillImage" /><dc:title /></cc:Work></rdf:RDF></metadata><defs
     id="defs6"><clipPath
       clipPathUnits="userSpaceOnUse"
       id="clipPath16"><path
         d="M 0,800 800,800 800,0 0,0 0,800 Z"
         id="path18"
         inkscape:connector-curvature="0" /></clipPath><clipPath
       clipPathUnits="userSpaceOnUse"
       id="clipPath130"><path
         d="m 389.196,301.396 394.45,0 0,-17.407 -394.45,0 0,17.407 z"
         id="path132"
         inkscape:connector-curvature="0" /></clipPath></defs><sodipodi:namedview
     pagecolor="#ffffff"
     bordercolor="#666666"
     borderopacity="1"
     objecttolerance="10"
     gridtolerance="10"
     guidetolerance="10"
     inkscape:pageopacity="0"
     inkscape:pageshadow="2"
     inkscape:window-width="1294"
     inkscape:window-height="701"
     id="namedview4"
     showgrid="false"
     inkscape:zoom="0.472"
     inkscape:cx="248.94068"
     inkscape:cy="669.49153"
     inkscape:window-x="0"
     inkscape:window-y="0"
     inkscape:window-maximized="0"
     inkscape:current-layer="g10" /><g
     id="g10"
     inkscape:groupmode="layer"
     inkscape:label="motorcycle-vectorportal-image"
     transform="matrix(1.25,0,0,-1.25,0,1000)"><g
       id="g4483"
       transform="matrix(0.97696176,0,0,0.77719481,37.371876,128.56033)"><path
         inkscape:connector-curvature="0"
         id="path188"
         style="fill:#231f20;fill-opacity:1;fill-rule:nonzero;stroke:none"
         d="m 570.189,363.226 c -1.743,0 -3.16,2.538 -3.16,5.668 0,3.129 1.417,5.668 3.16,5.668 1.748,0 3.161,-2.539 3.161,-5.668 0,-3.13 -1.413,-5.668 -3.161,-5.668 m -77.986,-22.522 c 0,1.382 1.122,2.507 2.503,2.507 1.383,0 2.506,-1.125 2.506,-2.507 0,-1.38 -1.123,-2.505 -2.506,-2.505 -1.381,0 -2.503,1.125 -2.503,2.505 m -2.137,0 c 0,-2.558 2.081,-4.64 4.64,-4.64 2.561,0 4.643,2.082 4.643,4.64 0,2.56 -2.082,4.642 -4.643,4.642 -2.559,0 -4.64,-2.082 -4.64,-4.642 m 60.363,60.645 c -0.835,0 -1.513,1.585 -1.513,3.542 0,1.958 0.678,3.545 1.513,3.545 0.837,0 1.513,-1.587 1.513,-3.545 0,-1.957 -0.676,-3.542 -1.513,-3.542 M 344.154,513.966 c 3.357,-1.449 5.258,-4.531 4.242,-6.887 -1.017,-2.356 -4.56,-3.093 -7.917,-1.647 -3.358,1.449 -5.257,4.531 -4.243,6.887 1.016,2.356 4.559,3.093 7.918,1.647 M 581.257,406.748 c -0.711,6.085 0.532,11.228 2.779,11.491 2.247,0.262 4.644,-4.457 5.353,-10.542 0.713,-6.083 -0.535,-11.227 -2.78,-11.489 -2.246,-0.264 -4.642,4.455 -5.352,10.54 m -464.528,14.539 c 35.055,24.693 79.266,28.005 119.07,13.036 -0.089,-1.892 -0.507,-4.017 -1.11,-6.255 -0.015,0.005 -0.026,0.01 -0.042,0.015 -0.832,0.297 -2.148,0.758 -3.74,1.248 -3.212,1.006 -7.825,2.266 -13.423,3.439 -5.594,1.195 -12.182,2.266 -19.283,2.984 -3.552,0.329 -7.229,0.623 -10.973,0.722 -3.743,0.136 -7.551,0.108 -11.351,-0.055 -3.801,-0.155 -7.591,-0.508 -11.303,-0.986 -1.854,-0.252 -3.687,-0.553 -5.492,-0.87 -1.795,-0.378 -3.584,-0.67 -5.307,-1.131 -0.864,-0.214 -1.721,-0.424 -2.57,-0.633 -0.846,-0.227 -1.673,-0.485 -2.495,-0.724 -1.654,-0.452 -3.232,-1.015 -4.772,-1.559 -3.073,-1.09 -5.904,-2.322 -8.459,-3.571 -1.3,-0.576 -2.457,-1.306 -3.603,-1.906 -1.151,-0.592 -2.177,-1.27 -3.154,-1.884 -1.983,-1.178 -3.565,-2.428 -4.914,-3.384 -1.328,-0.982 -2.288,-1.865 -2.981,-2.412 -0.681,-0.564 -1.044,-0.866 -1.044,-0.866 0,0 0.375,0.287 1.074,0.829 0.712,0.525 1.7,1.367 3.059,2.303 1.38,0.902 2.995,2.091 5.009,3.192 0.994,0.576 2.033,1.213 3.2,1.762 1.161,0.554 2.327,1.238 3.639,1.762 2.574,1.148 5.416,2.269 8.492,3.237 1.541,0.482 3.116,0.984 4.767,1.373 0.82,0.205 1.645,0.432 2.486,0.627 0.843,0.177 1.696,0.354 2.557,0.534 1.712,0.394 3.489,0.617 5.267,0.929 1.792,0.249 3.608,0.483 5.441,0.665 3.673,0.343 7.415,0.557 11.16,0.579 3.745,0.026 7.488,-0.079 11.167,-0.345 3.678,-0.226 7.283,-0.642 10.762,-1.089 6.952,-0.953 13.382,-2.234 18.814,-3.597 5.44,-1.341 9.892,-2.732 12.948,-3.809 1.548,-0.536 2.666,-0.974 3.486,-1.299 0.129,-0.052 0.229,-0.094 0.339,-0.139 -0.73,-2.167 -1.553,-4.373 -2.377,-6.526 -36.499,16.046 -75.348,14.461 -105.821,-4.157 -0.188,-0.115 -0.375,-0.236 -0.563,-0.351 -1.678,-1.042 -3.339,-2.121 -4.964,-3.267 C 83.512,384.202 68.574,338.376 76.849,292.348 l 0,-0.003 c 0,-0.001 0.002,-0.001 0.002,-0.004 2.202,-12.248 6.051,-24.51 11.581,-36.407 0,-0.001 0,-0.004 -0.003,-0.007 l 0.023,-0.036 c 3.852,-8.287 8.515,-16.395 14.013,-24.2 28.304,-40.179 71.63,-62.417 112.925,-62.42 21.527,-0.002 42.494,6.037 60.506,18.727 8.863,6.241 16.445,13.703 22.731,22.085 0.24,-3.015 1.179,-5.786 1.73,-7.404 0.126,-0.364 0.23,-0.671 0.302,-0.914 0.159,-0.532 0.326,-1.077 1.217,-1.452 -5.465,-5.815 -11.563,-11.153 -18.296,-15.896 -59.203,-41.7 -144.545,-22.481 -190.621,42.929 -46.073,65.41 -35.43,152.241 23.77,193.941 m 228.307,-210.97 c -17.733,-3.51 -36.28,-6.587 -40.622,-6.296 -0.005,0.008 -0.008,0.021 -0.011,0.033 -1.77,5.195 -2.943,10.869 1.765,13.561 24.979,14.277 39.553,34.652 43.324,60.555 6.242,42.883 -19.989,90.316 -31.981,102.87 -15.541,16.277 -30.68,9.312 -39.976,3.841 -0.175,0.18 -0.34,0.367 -0.516,0.547 l 20.919,40.597 c 15.354,-13.817 37.183,-42.211 50.583,-79.288 11.618,-32.138 20.404,-81.854 -3.485,-136.42 m -104.522,108.93 -3.059,-5.559 c -0.766,1.076 -1.833,2.349 -3.154,3.698 l 82.597,162.632 c 2.098,-1.926 3.412,-3.847 3.668,-5.417 L 240.514,319.247 Z m 78.962,161.208 c -1.002,1.066 -2.203,2.131 -3.611,3.162 -4.505,3.301 -10.995,6.178 -16.817,6.321 l 15.255,20.625 c 4.989,-0.106 10.146,-2.713 12.764,-4.846 l -7.591,-25.262 z m 13.1,26.597 6.642,12.267 c 2.274,-0.289 4.651,-0.932 6.956,-1.924 3.849,-1.659 7.092,-4.045 9.134,-6.722 1.908,-2.498 2.509,-4.912 1.698,-6.796 -0.813,-1.886 -2.982,-3.107 -6.109,-3.436 -3.342,-0.352 -7.306,0.366 -11.154,2.025 -2.754,1.186 -5.233,2.784 -7.167,4.586 m 26.417,1.355 c -0.412,1.172 -1.075,2.369 -1.986,3.565 -2.261,2.961 -5.809,5.584 -9.99,7.384 -2.206,0.952 -4.49,1.62 -6.705,1.979 l 9.686,17.881 c 2.955,0.489 6.67,-0.69 10.069,-2.433 l 3.836,-2.875 c 1.847,-1.36 3.292,-2.002 4.446,-4.176 l -9.356,-21.325 z m 3.236,2.058 1.802,4.108 c 15.832,-9.57 37.166,-33.949 57.234,-65.453 0.366,-0.571 0.725,-1.143 1.083,-1.714 -1.818,-0.967 -3.721,-1.804 -5.641,-2.383 -16.829,27.876 -37.127,53.081 -54.331,65.642 l -0.147,-0.2 z m 55.61,-67.334 c 1.939,0.629 3.841,1.495 5.646,2.465 2.741,-4.399 5.369,-8.786 7.857,-13.126 -1.994,-0.876 -4.158,-1.544 -6.424,-1.778 -2.266,4.179 -4.636,8.335 -7.079,12.439 m 8.158,-14.444 c 2.277,0.331 4.435,1.015 6.415,1.896 13.116,-23.169 22.23,-44.708 24.221,-57.886 l 1.047,0.159 c 2.262,-6.656 3.841,-12.852 4.792,-18.9 l 0.301,-1.921 2.022,0.127 c 1.303,-8.172 1.831,-18.837 -1.102,-22.095 -4.604,5.412 -9.372,12.775 -12.717,21.335 0.564,20.052 -9.886,49.035 -24.979,77.285 m 14.3,-42.699 c 0.623,-1.86 1.2,-3.688 1.735,-5.485 l -17.909,-5.232 c -0.584,1.662 -0.78,3.607 -0.05,5.721 1.791,0.766 9.114,2.973 16.224,4.996 m 0.277,-14.467 3.585,1.035 c 1.714,-7.278 2.589,-13.884 2.569,-19.654 l -15.058,-1.953 -0.494,-1.075 c -1.576,-3.441 0.179,-9.003 2.396,-13.8 -9.354,10.228 -14.605,22.386 -15.975,25.847 1.71,0.195 5.494,0.313 8.914,0.325 4.248,-5.809 7.927,-7.862 10.95,-6.106 3.868,2.252 4.625,10.606 3.113,15.381 m -23.243,-14.347 -51.219,-7.171 c -0.284,1.348 -0.347,2.808 0.112,4.156 l 49.282,7.262 c 0.346,-0.882 0.953,-2.358 1.825,-4.247 m 23.97,-26.419 c -3.237,5.249 -6.788,12.715 -6.488,16.293 l 12.644,1.641 c 2.295,-5.58 5.346,-11.03 8.691,-15.826 l -14.847,-2.108 z m 23.805,-2.293 c 4.245,4.405 2.869,17.253 1.826,23.832 l 18.845,1.174 c 5.755,-3.759 11.683,-7.37 17.476,-10.653 l 0,-10.396 c -8.369,-3.045 -22.83,-8.585 -27.33,-12.056 -2.358,0.363 -6.435,3.289 -10.817,8.099 m -2.017,41.553 c 4.994,-4.159 10.738,-8.443 16.839,-12.629 l -13.557,-0.846 c -0.776,4.375 -1.86,8.831 -3.282,13.475 m -2.885,8.212 -0.241,-0.257 c -3.266,14.338 -12.12,34.198 -23.715,54.638 2.851,1.757 5.061,3.669 6.358,4.899 9.949,-18.938 16.422,-35.292 20.384,-45.307 1.103,-2.783 1.971,-4.979 2.69,-6.669 l 0.215,-0.384 c 6.992,-10.029 39.807,-26.685 41.2,-27.389 l 0.691,-0.349 0.373,0.087 c 5.526,-7.021 26.537,-17.544 29.112,-18.817 l 0.401,-0.197 16.505,5.718 -2.024,1.169 c -5.536,3.198 -14.776,9.98 -16.176,20.025 l 0.154,0.044 c -0.368,1.263 -0.265,2.278 0.319,3.1 1.279,1.809 4.665,2.374 5.861,2.441 l -0.029,0.533 0.297,0.034 c 3.11,0.093 6.124,-0.687 5.517,-2.694 -2.628,-3.826 0.888,-7.307 5.448,-11.702 0.037,-1.099 0.113,-2.348 0.247,-3.652 -13.516,10.82 -8.146,15.354 -8.146,15.354 0,0 -8.899,-0.198 -6.916,-6.427 1.787,-5.623 14.211,-14.426 16.629,-16.098 0.467,-1.181 1.048,-2.223 1.776,-3.006 0.989,-1.066 2.166,-1.626 3.5,-1.664 0.167,-0.005 0.345,-0.009 0.531,-0.009 3.251,0 9.221,0.787 11.659,3.868 0.463,0.585 0.766,1.225 0.921,1.902 0.234,-0.005 0.489,-0.008 0.762,-0.008 3.184,0 8.837,0.381 10.891,2.944 1.007,1.253 1.344,3.808 1.353,6.631 l 27.52,11.977 8.729,3.065 11.5,-1.412 c -36.987,-16.224 -88.41,-38.512 -92.212,-39.402 -8.191,-1.902 -57.168,23.721 -82.084,47.014 m 234.788,15.678 c 0.678,0.591 1.323,1.199 1.94,1.824 0.604,-2.041 1.822,-3.918 3.451,-5.166 1.427,-1.09 3.074,-1.651 4.778,-1.651 0.705,0 1.421,0.097 2.137,0.29 22.261,6.053 18.103,52.181 17.381,58.837 1.05,0.471 2.134,0.818 3.238,1.073 1.759,-29.933 0.837,-64.098 -20.646,-64.344 -6.766,-0.078 -10.704,6.009 -12.279,9.137 m 11.182,-0.58 c -1.137,-0.308 -2.194,-0.103 -3.142,0.601 14.611,4.044 14.123,33.271 14.165,46.672 0.983,1.963 2.15,3.516 3.442,4.741 0.85,-10.2 2.728,-47.337 -14.465,-52.014 m 8.479,46.868 c -2.257,-5.319 -3.985,-10.576 -5.656,-15.664 -3.273,-9.958 -6.266,-19.048 -12.435,-26.009 l -0.063,0 c 0,-0.019 0.005,-0.042 0.005,-0.064 -3.375,-3.79 -7.704,-6.944 -13.541,-9.259 -1.648,1.557 -1.627,3.952 -1.428,5.366 1.987,2.538 3.455,4.958 4.47,6.856 7.856,1.907 11.599,13.321 15.557,25.409 3.565,10.893 7.249,22.152 14.003,27.037 l 0.396,0.287 c 0.387,0.159 0.782,0.312 1.178,0.473 0.778,0.26 1.555,0.571 2.366,0.788 3.208,0.977 6.561,1.503 9.091,1.546 0.633,0.039 1.21,-0.017 1.725,-0.03 0.514,-0.028 0.954,-0.115 1.323,-0.155 0.717,-0.16 1.129,-0.281 1.129,-0.281 0,0 -0.395,0.152 -1.11,0.37 -0.364,0.071 -0.805,0.192 -1.32,0.262 -0.514,0.053 -1.1,0.155 -1.74,0.167 -2.564,0.159 -6.001,-0.104 -9.365,-0.845 -0.846,-0.157 -1.671,-0.412 -2.495,-0.617 -0.343,-0.108 -0.68,-0.212 -1.015,-0.318 -0.783,1.381 -4.52,7.348 -10.813,7.981 0.392,0.476 0.799,0.95 1.23,1.407 0.979,1.029 2.035,1.995 3.133,2.746 0.549,0.374 1.101,0.709 1.653,0.971 0.546,0.272 1.09,0.463 1.603,0.611 0.518,0.134 1.002,0.21 1.438,0.246 0.435,0.021 0.817,0.015 1.131,-0.024 0.317,-0.012 0.557,-0.09 0.723,-0.115 0.168,-0.034 0.256,-0.05 0.256,-0.05 0,0 -0.087,0.025 -0.25,0.073 -0.164,0.041 -0.398,0.14 -0.716,0.183 -0.313,0.07 -0.7,0.111 -1.147,0.13 -0.449,0.005 -0.956,-0.028 -1.508,-0.117 -0.544,-0.104 -1.131,-0.253 -1.726,-0.481 -0.599,-0.219 -1.207,-0.515 -1.814,-0.853 -1.218,-0.678 -2.403,-1.579 -3.519,-2.553 -0.771,-0.681 -1.485,-1.405 -2.168,-2.132 l -0.196,-0.003 -0.307,-0.352 c -8.973,-10.203 -21.163,-16.585 -27.196,-19.326 -5.75,-2.171 -14.099,-5.808 -18.689,-7.841 l -9.728,-3.667 c 0.708,3.497 1.832,7.133 3.467,10.859 2.577,1.123 10.265,4.475 17.713,7.723 6.941,1.433 17.99,8.362 18.481,8.673 l 1.037,0.652 -0.04,1.225 c -0.054,1.637 -1.338,40.137 -1.605,44.392 l -0.123,2.002 -2.009,0 c -0.234,0 -0.52,-0.003 -9.118,-2.291 -0.599,14.384 4.681,24.008 14.257,25.808 5.545,1.049 13.474,-3.226 19.476,-8.9 1.075,-1.418 1.968,-2.714 2.675,-3.808 l 0.209,-0.321 c 2.717,-4.141 3.318,-6.737 1.892,-8.165 l 0.308,-0.308 c -3.515,0.833 -10.776,11.497 -18.101,14.332 -3.314,2.18 -7.192,2.573 -10.472,0.967 -4.401,-2.156 -6.8,-7.354 -6.416,-13.905 l 0.084,-1.441 10.107,3.743 c 0.476,-7.266 2.609,-39.934 2.843,-45.811 l 0.034,-0.797 0.774,-0.196 c 2.919,-0.729 4.924,0.47 7.247,1.862 2.558,1.532 5.743,3.439 11.725,3.987 8.093,0.734 21.596,-8.322 26.541,-15.988 1.319,-2.042 1.863,-3.78 1.574,-4.986 -0.213,0.013 -0.435,0.024 -0.657,0.036 -7.579,0.428 -19.028,1.08 -24.368,-11.497 m -3.286,34.56 c -3.689,-0.336 -6.43,-1.175 -8.588,-2.123 -2.305,0.539 -5.256,1.751 -5.55,2.397 -0.432,0.933 -3.445,9.479 7.237,14.686 9.33,0.64 11.56,-9.484 9.746,-15.036 -0.99,0.112 -1.949,0.159 -2.845,0.076 m 10.279,-2.24 c -1.003,0.444 -2.001,0.84 -2.984,1.162 -2.119,7.446 -10.589,40.554 -35.044,47.637 0.713,0.815 1.533,1.487 2.488,1.955 2.993,1.468 6.672,0.784 9.602,-1.779 l 0.029,0.033 c 18.734,-14.686 25.324,-46.065 25.909,-49.008 m -19.974,57.821 c -4.339,2.474 -8.913,3.902 -12.892,3.156 -10.826,-2.037 -16.764,-12.669 -15.976,-28.473 -4.482,-1.198 -10.813,-2.901 -19.724,-5.317 -1.62,10.051 -6.943,21.091 -13.265,23.772 l 0.212,0.173 c -4.89,5.979 -21.358,10.861 -36.201,7.456 9.715,7.683 29.828,18.153 57.533,16.684 18.809,-0.996 31.937,-9.402 40.313,-17.451 m -90.536,-26.201 c 0,0 -0.759,-0.09 -2.09,-0.249 -0.331,-0.032 -0.697,-0.097 -1.102,-0.118 -0.401,-0.009 -0.835,-0.016 -1.299,-0.026 -0.461,-0.011 -0.952,-0.02 -1.467,-0.03 -0.52,-0.005 -1.067,0.056 -1.635,0.082 -0.567,0.035 -1.158,0.073 -1.77,0.111 -0.609,0.079 -1.237,0.164 -1.885,0.249 -1.292,0.137 -2.639,0.431 -4.03,0.701 -1.391,0.28 -2.81,0.669 -4.249,1.04 -1.427,0.436 -2.886,0.829 -4.311,1.345 -1.437,0.47 -2.851,1.006 -4.238,1.544 -1.39,0.533 -2.737,1.118 -4.038,1.671 -0.501,0.222 -0.985,0.443 -1.466,0.665 2.591,2.58 9.788,9.009 21.595,14.015 14.899,6.311 33.279,1.052 37.57,-4.193 l 0.011,0.009 c -0.835,-7.381 -11.941,-24.843 -37.39,-29.932 l -5.268,-1.052 c -11.652,0.584 -19.513,6.148 -21.636,7.828 0.088,1.903 0.087,6.696 -1.526,12.577 2.07,-0.853 4.466,-1.751 7.058,-2.641 1.381,-0.45 2.803,-0.925 4.269,-1.345 1.468,-0.426 2.955,-0.846 4.465,-1.198 1.494,-0.398 3.025,-0.669 4.511,-0.986 1.506,-0.251 2.979,-0.519 4.423,-0.682 1.441,-0.15 2.829,-0.328 4.16,-0.352 0.663,-0.03 1.307,-0.058 1.929,-0.087 0.626,0.018 1.23,0.032 1.808,0.046 0.578,0.022 1.131,0.011 1.656,0.06 0.528,0.058 1.025,0.111 1.494,0.163 0.465,0.051 0.9,0.098 1.303,0.141 0.401,0.057 0.76,0.153 1.089,0.214 1.31,0.273 2.059,0.43 2.059,0.43 m -43.899,3.99 c 1.818,-4.956 2.489,-11.154 0.629,-16.83 l -4.588,-7.637 c -1.237,-1.277 -2.699,-2.459 -4.423,-3.504 l -2.49,0.427 c 2.45,1.983 4.3,5.574 4.3,5.574 l -44.764,1.373 -0.646,0.111 c 0.113,0.311 0.192,0.649 0.265,0.991 5.942,0.221 40.794,1.477 47.416,0.908 3.148,1.867 2.537,8.545 2.537,8.545 l -49.767,-7.484 c 0,0.066 0.005,0.131 0.004,0.199 6.028,1.58 36.283,9.464 49.076,11.822 0.737,5.342 -3.673,9.614 -3.673,9.614 L 515.565,492.44 c -0.076,0.48 -0.181,0.944 -0.31,1.384 7.292,3.94 36.19,19.575 41.316,22.682 -2.314,4.229 -9.124,4.852 -9.124,4.852 l -32.554,-26.512 c -0.099,0.225 -0.204,0.437 -0.317,0.637 l 30.793,28.2 c 10.491,1.651 18.682,-6.867 21.868,-15.56 m -21.991,18.344 -0.719,-0.659 c -1.142,1.22 -10.485,10.969 -18.668,12.524 -3.831,3.846 -19.083,18.731 -27.419,20.607 0.119,2.261 -0.156,4.913 -0.836,7.755 -0.626,2.609 -1.653,5.507 -3.074,8.212 12.624,-9.063 38.29,-35.27 50.716,-48.439 M 493.447,565.7 c 0.683,-2.842 0.841,-5.209 0.702,-6.948 -13.793,-3.072 -61.533,-23.421 -94.272,-26.679 -1.903,0.476 -3.26,1.22 -4.158,2.26 -1.535,1.781 -2.074,4.861 -1.691,9.688 l 0.023,0.301 c 0.647,8.191 1.849,23.417 -5.691,27.779 0.952,3.83 2.192,7.795 3.75,11.766 28.216,24.149 79.601,9.133 92.261,-3.788 l 0.214,-0.217 0.263,-0.15 c 3.679,-2.069 7.056,-7.571 8.599,-14.012 M 411.9,599.034 c -3.02,-0.849 -5.974,-1.917 -8.837,-3.239 -0.905,0.999 -2.152,2.031 -3.64,2.419 1.868,2.845 3.974,5.6 6.348,8.218 l -0.06,-0.179 c 1.104,-0.411 4.638,-4.687 6.189,-7.219 m -10.851,-4.227 c -1.88,-0.964 -3.712,-2.04 -5.489,-3.238 0.842,1.637 1.759,3.258 2.741,4.86 0.917,-0.24 2.091,-0.993 2.748,-1.622 m -15.711,-21.671 c -0.492,0.072 -0.999,0.104 -1.524,0.095 3.92,14.897 12.414,32.207 30.865,46.233 13.259,10.082 99.006,49.582 129.544,57.045 4.58,1.12 8.92,4.464 10.848,7.955 0.267,-1.317 0.177,-2.754 -0.324,-4.136 -1.065,-2.953 -3.597,-5.019 -6.94,-5.675 -26.031,-5.094 -115.635,-43.924 -133.598,-56.517 -16.821,-11.793 -24.969,-29.469 -28.871,-45 m 169.539,132.463 c 5.905,6.11 16.505,15.722 25.267,23.374 3.377,2.26 5.579,4.027 5.736,4.876 0.075,0.394 -0.029,0.785 -0.28,1.08 -0.124,0.396 0.8,2.24 2.796,3.538 1.125,0.735 3.29,1.714 5.109,0.052 1.707,-1.561 2.308,-3.069 1.79,-4.484 -0.641,-1.746 -2.734,-3.046 -4.176,-3.558 -0.113,0.047 -0.223,0.107 -0.342,0.138 l -0.072,-0.274 c -0.084,-0.022 -0.155,-0.037 -0.232,-0.053 -0.176,0.075 -0.354,0.117 -0.523,0.117 -3.859,-2.262 -24.769,-17.342 -35.073,-24.806 m 0.103,-1.246 0.912,0.563 1.984,-3.207 -0.908,-0.563 -1.988,3.207 z m 3.127,1.955 0.91,0.561 2.085,-3.367 -0.907,-0.562 -2.088,3.368 z m 3.131,1.953 0.908,0.561 2.184,-3.525 -0.909,-0.562 -2.183,3.526 z m 3.126,1.954 0.908,0.561 2.283,-3.684 -0.909,-0.562 -2.282,3.685 z m 5.508,-1.892 -2.381,3.846 0.909,0.563 2.382,-3.846 -0.91,-0.563 z m 3.228,1.797 -2.481,4.002 0.91,0.563 2.479,-4.003 -0.908,-0.562 z m 3.227,1.793 -2.581,4.164 0.909,0.562 2.577,-4.162 -0.905,-0.564 z m 3.226,1.797 -2.678,4.321 0.91,0.563 2.676,-4.323 -0.908,-0.561 z m 3.225,1.794 -2.774,4.482 0.908,0.562 2.775,-4.481 -0.909,-0.563 z m 3.228,1.795 -2.876,4.642 0.908,0.562 2.874,-4.643 -0.906,-0.561 z m 3.225,1.795 -2.974,4.802 0.913,0.562 2.968,-4.802 -0.907,-0.562 z m 3.225,1.794 -3.071,4.96 0.912,0.561 3.069,-4.959 -0.91,-0.562 z m 2.774,3.967 c -0.782,1.569 -1.509,3.005 -2.308,4.07 1.089,0.533 2.224,1.316 3.111,2.315 1.913,-2.775 3.929,-7.468 3.524,-10.023 -0.141,-0.887 -0.544,-1.105 -0.678,-1.177 -0.188,-0.102 -0.296,-0.081 -0.382,-0.053 -0.993,0.314 -2.306,2.947 -3.267,4.868 m -20.889,0.434 c -8.171,-7.251 -19.261,-17.385 -23.406,-22.551 -0.173,-0.125 -0.333,-0.24 -0.484,-0.35 l -3.897,8.687 0.647,-1.191 c 7.941,4.308 18.909,10.381 27.14,15.405 m -26.44,-25.043 c -4.66,-2.243 -19.021,-8.487 -29.723,-13.141 -4.708,-2.046 -8.944,-3.889 -11.687,-5.098 -0.744,3.374 -2.124,6.501 -3.008,8.295 l 40.624,18.397 3.794,-8.453 z m -22.946,3.299 -1.474,-0.669 -2.109,6.789 c -2.501,9.34 -6.39,23.983 -7.099,27.319 0.142,0.171 0.315,0.355 0.476,0.535 l 10.206,-33.974 z m -3.005,17.434 -0.665,2.206 c 1.009,0.658 3.606,2.365 7.095,4.739 4.507,3.077 10.471,7.246 16.224,11.704 1.44,1.113 2.872,2.234 4.256,3.372 1.401,1.112 2.729,2.278 4.034,3.373 1.27,1.143 2.526,2.207 3.648,3.302 0.565,0.54 1.114,1.066 1.646,1.574 0.512,0.529 1.007,1.04 1.483,1.53 0.968,0.961 1.749,1.949 2.484,2.775 0.71,0.851 1.257,1.653 1.742,2.279 0.441,0.662 0.745,1.209 0.972,1.568 0.221,0.363 0.337,0.556 0.337,0.556 0,0 -0.132,-0.184 -0.378,-0.529 -0.253,-0.343 -0.592,-0.864 -1.077,-1.486 -0.53,-0.587 -1.128,-1.337 -1.893,-2.126 -0.789,-0.768 -1.624,-1.679 -2.654,-2.558 -0.506,-0.451 -1.03,-0.918 -1.573,-1.403 -0.565,-0.463 -1.145,-0.943 -1.742,-1.435 -1.183,-0.996 -2.507,-1.961 -3.841,-2.995 -1.373,-0.989 -2.766,-2.04 -4.236,-3.038 -1.449,-1.021 -2.948,-2.026 -4.452,-3.022 -6.011,-3.984 -12.216,-7.675 -16.898,-10.387 -2.797,-1.618 -5.056,-2.887 -6.422,-3.649 l -3.573,11.893 c 11.081,10.049 45.808,28.313 54.638,25.075 0.952,-0.35 1.115,-0.856 1.141,-1.304 0.455,-6.64 -26.543,-29.125 -50.296,-42.014 m -2.296,-13.158 c 0.733,-2.738 1.311,-4.881 1.6,-5.952 l -19.539,-8.85 -1.682,4.729 19.621,10.073 z m -18.699,-27.164 -0.01,-0.039 c 0.895,-0.189 1.801,-1.095 2.202,-2.201 0.16,-0.429 0.302,-1.088 0.2,-1.886 -0.069,0.021 -0.136,0.044 -0.209,0.057 -40.513,-28.598 -110.758,-33.566 -114.333,-46.046 -0.736,0.667 -1.525,1.293 -2.374,1.854 -2.534,1.674 -5.195,2.55 -7.843,2.633 5.319,4.096 21.356,8.624 39.6,13.776 27.864,7.866 62.182,17.564 82.767,31.852 M 378.643,637.623 c -1.528,-0.954 -2.634,-1.911 -3.281,-2.886 -1.202,-0.263 -2.387,-0.696 -3.542,-1.3 l -0.234,-0.164 c -0.287,-0.269 -0.565,-0.54 -0.839,-0.812 0.132,0.762 0.38,1.654 0.829,2.561 0.065,0.012 0.121,0.023 0.168,0.03 l -0.036,0.217 c 0.297,0.554 0.663,1.111 1.137,1.643 2.179,2.431 5.772,3.671 10.687,3.689 -1.644,-0.74 -3.43,-1.838 -4.889,-2.978 m -8.377,-2.912 c -0.545,-1.386 -0.702,-2.663 -0.729,-3.51 -3.607,-3.93 -5.785,-7.874 -6.23,-8.716 l -3.476,-3.367 c -0.787,11.137 6.976,14.61 10.435,15.593 m -4.81,-13.118 c 1.266,0.291 2.458,0.487 3.604,0.624 -4.628,-5.102 -15.249,-18.271 -19.747,-22.758 -2.661,-0.391 -4.819,-3.352 -5.905,-7.66 l -5.639,-5.361 c -0.94,0.96 -2.069,1.94 -3.443,2.959 -0.388,0.289 -0.79,0.578 -1.203,0.865 l 32.333,31.331 z m -33.041,-34.766 c 3.384,-2.516 5.153,-4.646 5.4,-6.517 0.211,-1.587 -0.552,-3.274 -2.722,-6.021 -5.49,-6.959 -23.992,-21.951 -46.396,-26.018 1.632,1.992 2.895,4.639 3.718,7.851 0.32,1.256 0.548,2.584 0.721,3.945 0.002,0.009 0.006,0.017 0.006,0.028 0.004,0.027 0.005,0.055 0.01,0.083 0.048,0.328 0.079,0.67 0.119,1.009 0.43,3.811 0.172,8.257 -0.734,12.863 -0.024,0.132 -0.05,0.261 -0.074,0.393 -0.184,0.885 -0.38,1.773 -0.609,2.667 -0.166,0.648 -0.347,1.281 -0.532,1.911 -0.056,0.194 -0.115,0.39 -0.173,0.583 -0.153,0.493 -0.311,0.976 -0.474,1.455 -1.297,3.843 -2.929,7.232 -4.745,9.963 -2.371,3.679 -5.128,6.587 -8.038,8.444 24.245,2.353 44.113,-4.91 54.523,-12.639 m -67.638,-24.612 c 1.189,3.222 3.796,6.489 5.376,8.274 3.223,-11.695 9.58,-20.088 15.325,-20.088 0.291,0 0.58,0.026 0.865,0.068 -1.218,-1.538 -2.671,-2.561 -4.313,-2.983 -0.566,-0.145 -1.154,-0.218 -1.749,-0.218 -5.588,0 -11.627,6.073 -15.504,14.947 m 23.31,16.441 c 0,-0.002 0.001,-0.002 0.001,-0.004 0.236,-0.764 0.459,-1.546 0.662,-2.338 0.212,-0.833 0.4,-1.661 0.567,-2.488 0.026,-0.117 0.044,-0.229 0.066,-0.345 0.813,-4.143 1.05,-8.199 0.708,-11.898 -0.038,-0.339 -0.067,-0.68 -0.117,-1.005 -0.597,-3.909 -1.991,-6.421 -3.823,-6.889 -0.216,-0.056 -0.442,-0.085 -0.673,-0.085 -3.708,0 -9.539,7.136 -12.497,18.664 -3.114,12.141 -1.13,21.67 2.599,22.627 0.215,0.053 0.442,0.083 0.672,0.083 1.845,0 4.216,-1.769 6.495,-4.961 2.142,-3.166 4.004,-7.037 5.34,-11.361 m -13.857,19.137 c -0.025,-0.008 -0.052,-0.018 -0.08,-0.029 0.009,0.018 0.018,0.034 0.028,0.053 0.016,-0.008 0.035,-0.015 0.052,-0.024 m 32.738,-47.914 -0.738,0.344 c 3.046,1.287 5.943,2.71 8.671,4.211 -1.313,-3.633 -5.046,-13.671 -8.283,-19.622 -3.654,-3.172 -7.171,-5.853 -10.218,-7.562 l 10.568,22.629 z m 4.06,-36.608 -3.843,-5.183 c -0.627,1.069 -1.678,2.519 -3.3,3.821 l 5.094,11.986 10.87,6.864 -8.821,-17.488 z m 11.39,-2.426 c -2.139,0.901 -4.521,1.578 -6.924,1.791 l 22.036,43.693 c 3.364,1.533 6.314,1.651 8.786,0.349 0.439,-0.233 0.841,-0.517 1.228,-0.819 l -25.126,-45.014 z m 69.286,88.53 c -0.673,-1.052 -1.314,-2.106 -1.927,-3.16 -0.238,0.985 -0.625,1.895 -1.171,2.714 -1.389,2.099 -3.504,3.22 -5.323,3.837 2.851,-0.322 6.67,-2.319 8.421,-3.391 m 7.861,10.414 c -2.497,-2.831 -4.717,-5.717 -6.684,-8.628 -1.209,0.744 -6.089,3.586 -10.011,3.757 l 3.016,5.29 1.242,-0.742 2.176,3.104 c 2.697,0.16 7.551,-1.433 10.261,-2.781 m -42.46,-11.049 14.754,23.669 c 2.969,0.016 5.432,-0.583 7.344,-1.817 0.013,-0.009 0.023,-0.019 0.036,-0.027 l -13.792,-24.377 c -2.589,1.061 -5.407,1.958 -8.342,2.552 m -7.287,-1.359 0.037,0 c 2.707,-0.031 5.693,-5.157 5.981,-12.781 0.261,-6.995 -1.97,-12.144 -4.349,-13.08 -0.374,-0.054 -0.715,-0.101 -1.018,-0.139 -2.567,0.301 -5.399,5.34 -5.679,12.754 -0.288,7.664 2.418,13.126 5.028,13.246 m 13.933,-31.091 -7.446,-13.845 c -0.64,0.917 -1.596,2.123 -2.854,3.371 l 7.515,14.186 c 1.059,-0.727 2.204,-2.377 2.785,-3.712 m -11.779,3.138 c 0.468,0.067 0.965,0.14 1.485,0.222 -1.064,-2.207 -3.385,-6.993 -4.679,-9.488 -0.163,0.093 -0.305,0.208 -0.473,0.295 -1.525,0.805 -3.632,1.486 -6.289,1.367 -1.791,0.294 -3.745,0.367 -5.866,0.134 2.403,4.971 6.009,11.048 7.905,14.163 1.406,-4.068 3.727,-6.715 6.392,-6.881 l 10e-4,-0.017 c 0.021,0.002 0.05,0.007 0.072,0.011 0.063,-0.004 0.126,-0.02 0.192,-0.02 l 0.174,0.004 c 0.37,0.016 0.733,0.099 1.086,0.21 m 5.999,15.253 c -0.175,4.679 -1.317,8.716 -3.022,11.395 0.468,-0.153 0.927,-0.425 1.39,-0.854 2.073,-1.914 3.522,-6.082 3.691,-10.622 0.243,-6.481 -2.09,-11.233 -4.513,-11.976 1.671,2.822 2.637,7.151 2.454,12.057 m 17.574,-4.754 c -3.275,-3.454 -10.277,-5.67 -16.288,-7.007 1.938,2.574 3.091,6.862 2.907,11.761 -0.179,4.847 -1.684,9.213 -3.943,11.645 7.823,-1.888 14.605,-5.926 17.511,-8.909 2.391,-2.451 2.331,-4.831 -0.187,-7.49 m 8.825,31.938 -11.222,-19.691 c -0.906,0.597 -1.9,1.191 -2.969,1.773 l 12.748,22.277 c 0.611,-1.253 1.094,-2.697 1.443,-4.359 m -7.108,-22.956 c -0.624,0.639 -1.43,1.326 -2.359,2.028 l 5.859,10.28 c 1.611,-0.283 4.501,-1.109 6.064,-3.466 0.886,-1.338 1.228,-3.024 1.035,-5.023 -0.424,-0.818 -0.833,-1.635 -1.225,-2.452 -3.253,-2.896 -5.948,-4.104 -7.309,-4.576 -0.417,1.246 -1.207,2.329 -2.065,3.209 m 7.991,41.705 c 4.475,-2.957 7.062,-7.652 7.101,-9.966 l -5.834,-8.33 -0.084,0.049 c -1.012,4.743 -2.996,8.033 -6.076,10.021 -3.324,2.144 -7.918,2.682 -13.655,1.633 1.332,2.059 3.461,4.985 6.232,7.587 5.033,2.57 9.473,0.886 12.316,-0.994 m 27.484,-8.599 c -4.435,-3.372 -8.318,-6.926 -11.716,-10.587 -2.507,1.343 -6.907,2.919 -10.253,3.232 l 3.684,5.261 0.025,0.29 c 0.15,1.909 -0.96,4.736 -2.995,7.418 7.184,10.874 73.364,17.257 113.037,44.672 l 0.262,-0.209 c 0.185,0.24 0.351,0.486 0.509,0.734 l 5.006,-1.44 23.983,10.078 c 0.499,-1.18 1.08,-2.698 0.549,-3.855 -0.094,-0.206 -0.225,-0.401 -0.39,-0.586 -36.002,-11.52 -109.439,-45.688 -121.701,-55.008 m 138.495,70.811 -0.268,-0.875 -40.868,-17.175 -3.215,0.927 c 0.086,0.607 0.128,1.229 0.129,1.86 2.555,1.138 7.391,3.241 12.872,5.623 11.196,4.871 24.892,10.827 29.77,13.163 l 1.58,-3.523 z m 1.678,-4.841 c -0.08,-2.743 -4.454,-7.144 -9.448,-8.363 -1.916,-0.468 -4.048,-1.063 -6.365,-1.767 0.264,1.626 -0.34,3.236 -0.848,4.437 l 16.321,6.859 c 0.353,-0.493 0.348,-0.947 0.34,-1.166 M 366.555,536.488 c 0.187,0.825 0.472,2.04 0.858,3.59 l 8.995,-1.498 -1.091,-8.969 c -2.842,2.341 -5.76,4.637 -8.762,6.877 m 59.501,-86.889 c -18.931,29.934 -42.051,58.141 -60.292,68.922 l 4.315,9.836 c 6.827,-5.463 13.211,-11.205 19.172,-17.127 l -0.279,-0.358 c 0.572,-0.447 1.206,-0.853 1.867,-1.237 7.259,-7.342 13.883,-14.939 19.918,-22.606 -0.028,-0.054 -0.067,-0.111 -0.093,-0.165 l 0.352,-0.161 c 1.075,-1.37 2.132,-2.741 3.168,-4.112 -0.023,-0.069 -0.057,-0.135 -0.078,-0.203 l 0.3,-0.091 c 7.033,-9.326 13.222,-18.689 18.644,-27.748 -0.428,-0.31 -0.888,-0.648 -1.404,-1.028 -1.538,-1.134 -3.453,-2.546 -5.59,-3.922 m 15.509,-10.12 c -1.101,-1.073 -3.37,-3.124 -6.391,-4.998 -2.546,4.434 -5.216,8.886 -7.983,13.309 2.193,1.41 4.151,2.851 5.723,4.011 0.441,0.325 0.849,0.624 1.232,0.904 2.659,-4.505 5.127,-8.928 7.419,-13.226 m 5.989,-2.212 12.118,2.521 0.144,0.321 0.328,-1.359 -0.077,-0.156 -11.963,-2.394 c -0.181,0.354 -0.367,0.711 -0.55,1.067 m 1.556,-3.044 12.411,2.483 1.129,2.296 5.775,2.344 c 0.643,-0.188 1.333,-0.383 2.057,-0.574 l -6.899,-2.258 -0.037,0.019 -0.018,-0.037 -1.146,-0.375 0.361,-1.105 -0.785,-1.485 -12.313,-2.372 c -0.178,0.354 -0.356,0.709 -0.535,1.064 m 1.524,-3.047 12.735,2.451 1.644,3.109 9.387,3.072 c 0.646,-0.149 1.306,-0.298 1.987,-0.444 l -10.789,-3.808 -0.004,0.002 -0.004,-0.003 -1.236,-0.436 0.38,-1.079 -0.887,-1.574 -12.693,-2.352 c -0.172,0.353 -0.345,0.707 -0.52,1.062 m 1.49,-3.054 13.093,2.423 1.84,3.261 13.373,4.716 c 0.706,-0.14 1.427,-0.28 2.162,-0.421 l -16.255,-5.98 0.39,-1.061 -0.994,-1.66 -13.098,-2.335 c -0.168,0.349 -0.34,0.704 -0.511,1.057 m 1.463,-3.058 13.484,2.401 2.025,3.394 17.415,6.408 -0.041,0.116 c 0.825,-0.148 1.662,-0.297 2.512,-0.445 l -20.661,-7.817 0.396,-1.046 -1.096,-1.742 -13.54,-2.321 c -0.166,0.35 -0.327,0.699 -0.494,1.052 m 1.43,-3.058 13.905,2.383 2.213,3.514 21.186,8.014 -0.183,0.485 c 1.109,-0.187 2.235,-0.37 3.378,-0.554 l -25.205,-9.723 0.399,-1.037 -1.206,-1.822 -14.004,-2.307 c -0.159,0.346 -0.32,0.697 -0.483,1.047 m 1.401,-3.062 14.355,2.367 2.401,3.627 24.95,9.627 -0.356,0.924 c 1.382,-0.217 2.783,-0.432 4.199,-0.645 l 0.019,-0.097 -29.683,-11.619 0.4,-1.028 -1.313,-1.901 -14.502,-2.299 c -0.156,0.347 -0.311,0.695 -0.47,1.044 m 1.372,-3.061 14.838,2.349 2.585,3.742 27.203,10.647 0.255,-1.258 -28.377,-11.232 0.404,-1.021 -1.424,-1.977 -15.023,-2.291 c -0.152,0.346 -0.308,0.692 -0.461,1.041 m 1.345,-3.065 15.347,2.336 2.774,3.854 25.844,10.226 0.262,-1.288 -27.076,-10.809 0.755,-1.895 c -4.913,-1.312 -10.067,-2.398 -15.096,-2.979 l -2.401,-0.28 5.646,-7.573 -1.097,-3.439 c -1.431,3.539 -3.074,7.512 -4.958,11.847 m 6.207,-14.958 1.429,4.48 20.264,0.346 c -0.42,-1.506 -0.6,-3.186 -0.556,-4.957 l -19.538,-3.904 c -0.493,1.25 -1.025,2.599 -1.599,4.035 m 2.401,-6.051 18.905,3.777 c 0.026,-0.197 0.037,-0.391 0.07,-0.589 0.306,-1.962 0.874,-3.846 1.629,-5.6 l -18.618,-2.239 c -0.068,0.085 -0.145,0.175 -0.208,0.261 -0.502,1.187 -1.088,2.649 -1.778,4.39 m 4.543,-7.377 17.801,1.72 c 0.711,-1.092 1.51,-2.087 2.387,-2.969 -6.457,-0.535 -13.642,-1.135 -17.018,-1.417 -1.171,0.913 -2.237,1.807 -3.17,2.666 m 9.267,-7.032 c -1.221,0.817 -2.398,1.631 -3.518,2.439 1.043,0.085 2.235,0.184 3.518,0.293 l 0,-2.732 z m 12.243,-7.537 c -2.601,1.5 -5.319,3.12 -7.972,4.782 l 0,5.841 c 2.406,0.201 4.927,0.41 7.333,0.609 l 0.639,-11.232 z m 3.213,-1.831 8.78,2.048 0,6.732 c 0.923,-0.998 1.743,-2.067 2.504,-3.121 l 0.915,-11.568 -0.869,-0.202 c -1.636,0.843 -6.026,3.13 -11.33,6.111 m 37.138,-4.556 c 1.97,-8.931 9.421,-15.218 14.979,-18.765 l -11.308,-3.918 c -6.773,3.375 -22.33,11.803 -27.347,17.233 l 23.676,5.45 z m 1.403,7.228 c -0.309,-0.277 -0.595,-0.582 -0.84,-0.925 -0.017,-0.023 -0.027,-0.047 -0.044,-0.069 l -19.562,23.083 -0.275,-0.233 c 0.01,0.033 0.02,0.063 0.028,0.097 0.194,0.795 0.313,1.617 0.382,2.445 l 18.382,-21.141 0.405,0.352 c 0.281,-1.835 0.89,-3.194 0.942,-3.307 l 0.162,-0.353 0.42,0.051 z m 3.302,1.769 c -0.383,-0.122 -0.774,-0.266 -1.164,-0.436 l -1.896,-0.228 c -0.225,0.59 -0.646,1.861 -0.779,3.36 l 0.222,0.194 -0.251,0.289 c -0.066,1.504 0.189,3.18 1.225,4.624 1.604,0.68 3.718,0.694 5.148,0.601 -2.003,-1.828 -3.363,-5.51 -2.505,-8.404 m 8.095,3.572 c -1.719,1.106 -3.226,3.412 -3.238,5.961 -0.298,-0.015 -0.591,-0.095 -0.881,-0.203 -1.045,0.149 -4.64,0.545 -7.186,-0.61 l -0.124,-0.056 -0.081,-0.109 c -0.987,-1.309 -1.407,-2.766 -1.517,-4.154 l -17.978,20.677 -0.627,-0.543 c -0.01,1.599 -0.195,3.162 -0.467,4.555 1.839,-2.543 7.816,-10.733 11.547,-14.814 -1.068,2.251 -2.136,14.6 -2.136,14.6 l -9.564,0.948 c -0.068,0.299 -0.137,0.584 -0.21,0.858 l 9.812,0.169 1.124,12.127 c 7.895,0.25 12.191,2.536 14.407,4.404 8.053,-0.109 25.072,7.427 25.072,7.427 l -0.004,0 c 1.5,-0.129 2.863,-0.238 4.048,-0.323 1.168,-0.084 2.286,-0.204 3.365,-0.356 -1.052,-2.998 -4.511,-5.924 -7.922,-8.204 -3.533,-0.136 -8.629,-0.884 -13.895,-1.832 l -0.294,0.229 -0.25,-0.325 c -10.606,-1.933 -21.661,-4.596 -21.661,-4.596 l 0.958,-18.39 10e-4,-0.068 0.109,-2.063 0.008,0.005 0.388,-7.038 -0.103,-0.017 0.147,-0.81 0.044,-0.798 0.099,0.026 0.094,-0.519 30.985,5.032 0.006,-0.035 23.696,4.021 c 0.612,-0.157 1.22,-0.239 1.82,-0.239 0.275,0 0.548,0.016 0.817,0.047 1.277,0.144 2.365,0.556 3.304,1.126 5.233,0.982 13.402,2.218 18.357,2.946 2.323,-2.949 4.554,-5.341 6.667,-7.302 l -68.737,-11.754 z m 15.271,-32.243 c -0.519,-0.022 -1.03,-0.026 -1.521,-0.009 -0.752,0.02 -1.405,0.342 -1.997,0.981 -2.337,2.521 -2.966,9.072 -3.049,13.406 0.294,1.754 1.292,2.987 2.978,3.449 -2.225,-8.895 1.864,-15.533 3.589,-17.827 m 12.143,34.765 c 1.408,-0.937 2.346,-3.512 2.68,-6.08 -0.465,-4.443 -1.876,-11.296 -5.255,-12.695 -1.428,-0.588 -3.191,-0.151 -5.264,1.288 -3.151,4.55 -2.892,12.303 -1.559,15.879 l 9.398,1.608 z m 9.373,-26.878 c -1.321,-1.645 -5.938,-2.158 -9.462,-2.142 0.4,3.001 -0.31,7.122 -0.65,8.823 2.622,1.764 4.049,5.626 4.823,9.197 0.823,0.373 0.825,0.375 0.825,0.375 0,0 2.632,8.782 0.531,11.553 l 3.239,0.556 c 0.034,-4.389 -0.505,-8.631 -1.983,-12.643 l 2.579,0 c 0.88,-5.372 1.622,-13.817 0.098,-15.719 m 25.656,17.478 -6.814,-2.965 -1.586,11.583 6.141,0 2.259,-8.618 z m -34.382,44.674 c -0.104,-1.495 -0.089,-3.163 0.08,-5.026 l -18.34,-1.851 c 0.159,1.39 0.459,2.751 0.951,4.023 l 17.309,2.854 z m 4.732,-19.131 -19.011,-3.227 c -0.27,0.297 -0.534,0.629 -0.791,1.009 2.258,2.176 13.807,5.628 17.326,6.645 0.722,-1.809 1.563,-3.266 2.476,-4.427 m 7.375,-1.559 c -3.59,-0.396 -8.024,2.969 -9.638,13.672 -1.604,10.652 1.927,15.036 3.517,16.427 0.306,0.267 0.608,0.479 0.907,0.663 1.769,-0.797 3.414,-1.736 4.976,-2.819 3.475,-4.39 7.849,-13.971 4.81,-25.064 -0.956,-1.422 -2.395,-2.634 -4.572,-2.879 m -28.585,6.036 17.253,5.01 c 0.194,-0.939 0.419,-1.807 0.66,-2.633 l -17.246,-5.368 -0.667,2.991 z m -11.477,13.51 -3.469,-4.519 -4.181,-0.959 1.862,3.984 5.788,1.494 z m -14.693,-3.79 6.224,1.606 -1.824,-3.902 -3.868,-0.887 -0.532,3.183 z m 15.035,-21.361 -5.987,-1.095 c -1.692,1.755 -4.38,5.167 -6.349,7.752 l -0.319,0.465 -0.281,1.686 4.073,0.9 c 1.577,-1.885 5.691,-6.715 8.863,-9.708 m 8.067,1.474 -5.411,-0.99 c -2.692,2.243 -6.985,7.175 -9.163,9.744 l 4.565,1.012 c 1.989,-2.397 6.263,-7.267 10.009,-9.766 m -22.218,14.593 3.369,0.773 0.916,-5.166 -3.423,-0.758 -0.862,5.151 z m 11.07,-2.891 -4.698,-1.04 -0.918,5.182 4.653,1.068 0.963,-5.21 z m 7.806,13.282 4.292,-0.665 -0.008,-0.034 c -4.019,-7.715 -1.173,-19.295 3.024,-23.561 l -0.556,-0.101 c -2.72,0.549 -8.685,6.673 -12.424,11.295 l -1.112,6.012 5.075,6.613 1.709,0.441 z m -74.249,1.466 25.919,10.349 0.177,-0.876 c -3.377,-1.54 -13.935,-6.15 -26.096,-9.473 m 24.749,-33.505 c -0.233,0.211 -0.45,0.42 -0.672,0.631 l 6.757,2.113 10.326,-13.705 -4.028,-1.547 -4.097,4.253 c -1.999,2.83 -4.483,6.315 -8.286,8.255 m 11.547,8.634 13.719,-16.192 -3.094,-1.189 -11.839,15.284 c 0.479,0.62 0.878,1.323 1.214,2.097 m 13.384,27.127 c -0.941,-0.086 -1.942,-0.143 -3.022,-0.16 -0.994,1.936 -2.841,5.628 -4.099,8.794 0.98,0.155 2.035,0.396 3.105,0.687 l 4.016,-9.321 z m -23.015,-32.082 -4.274,-1.338 c -4.838,5.32 -5.97,10.362 -5.995,13.84 -0.016,1.705 0.238,3.285 0.643,4.674 l 3.935,0.067 c -0.324,-1.574 -0.473,-3.135 -0.465,-4.505 0.005,-1.175 1.027,-9.583 5.348,-12.323 0.234,-0.151 0.512,-0.288 0.808,-0.415 m 8.243,7.518 c -0.625,-2.59 -1.961,-4.377 -3.968,-5.311 -1.522,-0.707 -2.812,-0.706 -3.938,0.011 -3.195,2.027 -4.352,8.944 -4.357,10.527 -0.007,1.341 0.158,2.943 0.524,4.537 l 5.434,0.092 c -1.449,-0.501 -2.554,-3.069 -2.554,-6.167 0,-3.459 1.377,-6.265 3.071,-6.265 1.697,0 3.072,2.806 3.072,6.265 0,3.136 -1.132,5.728 -2.609,6.183 l 4.823,0.083 c 0.701,-2.392 1.355,-6.446 0.502,-9.955 m 25.253,28.02 c -1.527,-1.16 -4.11,-2.502 -8.273,-3.182 l -4.158,9.651 c 2.91,0.918 5.7,2.036 7.323,2.718 1.303,-2.191 3.214,-5.508 5.108,-9.187 m -48.741,-18.458 3.41,0.058 c -0.358,-1.423 -0.585,-2.979 -0.571,-4.653 0.027,-3.701 1.17,-8.977 5.909,-14.52 l -0.684,-0.213 c -0.616,0.042 -1.256,0.048 -1.923,0.01 -3.316,2.528 -5.838,7.051 -6.604,11.923 -0.435,2.753 -0.254,5.316 0.463,7.395 m 175.268,-22.292 c -3.587,-1.009 -7.411,-1.793 -11.439,-2.242 -10.553,0.709 -23.014,4.873 -37.711,23.134 -17.625,21.897 -25.579,32.043 -42.565,33.111 -15.834,0.996 -96.263,8.152 -109.04,14.899 0.021,2.546 0.76,4.866 2.181,6.508 0.97,1.121 2.198,1.853 3.586,2.172 l -0.404,-0.717 c 7.953,-4.494 30.279,-5.66 56.132,-7.008 25.265,-1.319 51.39,-2.684 63.519,-7.387 7.318,-2.836 15.101,-12.438 23.347,-22.608 11.578,-14.282 24.587,-30.326 39.614,-30.326 1.218,0 2.448,0.105 3.688,0.326 l -0.472,2.669 c 3.543,-0.391 6.64,-2.291 8.385,-5.229 1.308,-2.203 1.695,-4.757 1.179,-7.302 m -17.874,49.468 7.2,2.713 c 0.719,-3.616 2.292,-11.331 3.129,-13.938 -3.775,-3.294 -7.121,-4.029 -10.462,-3.247 -0.574,4.377 -0.661,9.252 0.133,14.472 m 6.27,22.323 c -6.424,-10.193 -8.756,-20.007 -8.97,-28.623 -9.499,3.829 -15.79,12.163 -17.442,14.554 l 55.539,63.593 c 0.194,-4.837 0.486,-13.109 0.759,-20.921 -9.093,-5.91 -16.204,-11.948 -21.702,-17.955 -3.871,-3.513 -6.463,-7.31 -8.184,-10.648 m 30.51,10.352 c -2.116,-1.283 -5.496,-3.199 -8.86,-4.794 -1.403,3.352 -2.624,7.152 -3.313,9.438 l 11.744,7.932 c 0.195,-5.628 0.356,-10.409 0.429,-12.576 m -3.583,39.899 -55.098,-63.085 -7.161,1.134 c 2.891,1.919 6.599,4.593 6.599,4.593 -0.025,0.133 -0.059,0.269 -0.085,0.403 l 52.139,56 c 1.33,0.354 2.539,0.675 3.606,0.955 m -72.568,-12.693 c 20.312,6.541 31.077,21.205 32.513,30.061 5.26,-3.576 10.379,-15.526 10.555,-25.598 0.057,-3.418 -0.485,-9.294 -4.669,-10.895 -2.836,0.473 -20.287,3.385 -38.399,6.432 m -36.224,-10.716 12.341,0.235 -0.123,0.096 c 0.164,0 0.338,-0.016 0.489,0.01 1.648,0.253 10.749,-0.512 19.553,-1.254 10.124,-0.854 20.529,-1.735 26.031,-1.735 1.309,0 2.341,0.053 3.024,0.163 0.658,0.108 1.25,0.263 1.789,0.454 0.785,-0.479 1.436,-1.31 1.976,-2.279 L 618.556,459.72 c -6.483,10.345 -19.235,19.603 -43.936,17.628 -1.181,0.63 -2.358,1.202 -3.53,1.717 m -59.027,16.105 0.588,-0.644 c 0.186,-0.309 0.361,-0.669 0.502,-1.111 0.74,-2.312 0.421,-5.034 -0.345,-5.832 l -1.316,-1.371 -0.769,0.093 c -1.909,0.989 -3.666,2.232 -3.596,3.231 0.067,0.967 2.248,3.115 4.936,5.634 m 15.212,14.84 -7.237,-6.628 c -4.242,5.931 -1.392,8.532 0.098,9.397 l 4.39,-0.901 c -3.395,18.615 -14.527,24.649 -18.153,25.397 2.875,0.285 5.841,-0.284 8.134,-0.946 0.161,-0.082 0.32,-0.167 0.482,-0.251 7.858,-6.369 11.465,-22.008 12.286,-26.068 M 430.44,466.824 c -3.789,5.845 -7.893,11.763 -12.336,17.672 4.279,3.748 14.269,6.477 22.117,8.042 -6.996,-4.552 -15.879,-12.201 -15.879,-12.201 l -0.97,-0.449 c 0.032,-0.067 2.851,-6.096 7.068,-13.064 m 1.825,-2.847 0.81,0.378 c 0.69,0.325 1.35,0.621 2.018,0.923 l 3.964,-7.285 -2.664,-0.699 c -1.33,2.211 -2.705,4.44 -4.128,6.683 m 5.266,-8.593 11.106,2.913 0.541,2.948 11.344,4.364 1.241,-2.769 c -4.585,-1.55 -8.699,-3.063 -10.465,-4.054 l -2.07,0.483 -0.54,-2.309 -10.522,-2.652 c -0.209,0.359 -0.421,0.717 -0.635,1.076 m 1.756,-2.997 11.182,2.821 0.375,1.596 c 0.104,-0.245 0.217,-0.499 0.346,-0.776 l -0.601,-2.125 -10.683,-2.592 c -0.207,0.358 -0.411,0.717 -0.619,1.076 m 1.718,-3.008 11.299,2.744 0.302,1.063 c 0.13,-0.249 0.265,-0.503 0.403,-0.761 l -0.519,-1.58 -10.878,-2.541 c -0.2,0.358 -0.404,0.717 -0.607,1.075 m 1.688,-3.016 11.451,2.674 0.267,0.815 c 0.149,-0.267 0.298,-0.533 0.446,-0.802 l -0.47,-1.267 -11.102,-2.493 c -0.195,0.356 -0.394,0.716 -0.592,1.073 m 1.654,-3.025 11.637,2.613 0.25,0.673 c 0.162,-0.283 0.327,-0.565 0.486,-0.846 l -0.439,-1.057 -11.358,-2.456 c -0.191,0.357 -0.382,0.714 -0.576,1.073 m 11.378,10.222 c 10e-4,0.524 0.128,1.036 0.213,1.544 0.137,0.493 0.275,0.984 0.488,1.424 0.181,0.453 0.42,0.86 0.663,1.234 0.238,0.374 0.508,0.701 0.766,0.985 0.262,0.287 0.522,0.525 0.776,0.714 0.233,0.204 0.491,0.325 0.682,0.438 0.226,0.089 0.383,0.167 0.501,0.157 0.116,0.011 0.179,0.016 0.179,0.016 0,0 -0.058,-0.026 -0.168,-0.07 -0.121,-0.027 -0.239,-0.171 -0.398,-0.28 -0.146,-0.154 -0.338,-0.32 -0.516,-0.556 -0.19,-0.224 -0.375,-0.495 -0.574,-0.795 -0.191,-0.301 -0.378,-0.642 -0.559,-1.005 -0.176,-0.366 -0.34,-0.761 -0.48,-1.179 -0.168,-0.407 -0.235,-0.864 -0.354,-1.304 -0.06,-0.456 -0.167,-0.913 -0.153,-1.381 -0.048,-0.464 -0.021,-0.929 0.022,-1.389 0.009,-0.463 0.131,-0.905 0.196,-1.342 0.058,-0.385 0.186,-0.736 0.286,-1.088 0.01,-0.04 0.024,-0.08 0.035,-0.121 0.001,-0.011 0.006,-0.021 0.008,-0.033 0.094,-0.404 0.275,-0.752 0.399,-1.093 0.143,-0.335 0.232,-0.667 0.382,-0.923 0.083,-0.171 0.156,-0.322 0.226,-0.462 0.043,-0.083 0.081,-0.166 0.116,-0.238 0.182,-0.399 0.285,-0.626 0.285,-0.626 0,0 -0.168,0.184 -0.463,0.507 -0.137,0.164 -0.306,0.363 -0.498,0.588 -0.007,0.009 -0.012,0.012 -0.016,0.019 -0.212,0.228 -0.375,0.534 -0.581,0.855 -0.074,0.127 -0.157,0.257 -0.237,0.39 -0.134,0.214 -0.263,0.436 -0.355,0.695 -0.104,0.265 -0.227,0.542 -0.341,0.828 -0.059,0.152 -0.123,0.302 -0.158,0.47 -0.101,0.471 -0.296,0.948 -0.31,1.465 -0.061,0.509 -0.102,1.031 -0.062,1.556 m 15.145,6.749 c -2.545,-0.077 -4.816,-1.124 -6.5,-3.07 -2.522,-2.913 -3.323,-7.276 -2.242,-11.801 l 0,-1.006 c -2.167,2.363 -5.881,8.032 0.586,14.436 2.588,2.562 5.727,2.548 8.289,1.676 l -0.133,-0.235 z m 19.068,-3.318 c -0.993,0.108 -1.965,0.219 -2.906,0.336 l -6.922,11.283 c 0,0 -0.028,-0.009 -0.039,-0.013 l -4.892,7.734 c 0.14,0.098 0.285,0.192 0.417,0.305 0.336,0.229 0.766,0.582 1.268,1.029 3.514,-5.52 7.976,-12.547 10.936,-17.253 l -0.082,-0.008 1.03,-1.504 c 0.456,-0.727 0.858,-1.376 1.19,-1.909 m 0.212,3.702 c -0.308,0.495 -0.652,1.043 -1.032,1.647 2.721,0.831 5.445,2.839 6.789,3.934 l 0.951,-1.16 c -1.965,-1.657 -4.956,-3.856 -6.708,-4.421 m 19.341,-5.255 c -0.68,0.042 -1.359,0.083 -2.033,0.125 l -11.303,13.774 -0.831,-0.754 c -0.043,-0.038 -4.017,-3.618 -7.392,-4.354 -0.271,0.422 -0.555,0.87 -0.85,1.337 3.675,1.474 7.716,4.93 9.46,6.522 l 12.949,-16.65 z m 4.366,-0.258 c -0.509,0.029 -1.02,0.058 -1.528,0.09 l -15.556,20 -0.857,-0.839 c -0.059,-0.056 -5.627,-5.469 -9.998,-7.023 -0.233,0.366 -0.479,0.75 -0.726,1.142 4.024,1.602 9.655,6.907 11.891,9.118 l 16.774,-22.488 z m 3.53,-0.194 c -0.249,0.012 -0.499,0.027 -0.747,0.039 l -19.333,25.915 -0.873,-0.897 c -2.35,-2.416 -8.868,-8.538 -12.407,-9.655 -0.285,0.448 -0.58,0.909 -0.882,1.388 4.224,2.048 11.917,8.879 14.744,11.455 l 9.958,-12.877 9.54,-15.368 z m -7.281,41.204 -8.365,-8.882 -1.39,0.75 7.84,9.132 1.915,-1 z m -44.596,-1.313 c 11.627,4.794 28.825,28.453 34.75,36.986 1.137,-0.907 2.334,-2.108 3.495,-3.419 -8.723,-11.519 -29.112,-36.817 -35.804,-37.854 -7.812,-1.21 -15.506,-3.072 -22.169,-4.965 l -1.502,2.998 c 6.88,1.885 14.138,3.327 21.23,6.254 m -29.778,-9.069 c 2.097,0.848 4.251,1.572 6.457,2.217 l 1.506,-3.003 c -2.318,-0.682 -4.49,-1.358 -6.47,-2.001 l -1.493,2.787 z m -10.044,-5.806 c 2.524,2.063 5.229,3.665 8.071,4.963 l 1.406,-2.624 c -4.354,-1.455 -7.557,-2.661 -9.036,-3.236 -0.174,0.348 -0.322,0.651 -0.441,0.897 m 7.336,-13.311 c -2.503,4.037 -4.566,7.854 -5.927,10.499 1.574,0.608 4.784,1.81 9.09,3.243 l 5.4,-10.087 c -2.652,-1.033 -5.492,-2.23 -8.563,-3.655 m 26.626,0.87 -10.939,-4.208 -3.455,6.094 c 4.647,1.674 8.599,2.762 11.98,3.505 l 2.414,-5.391 z m -12.895,16.119 c 4.187,1.183 8.77,2.346 13.529,3.339 l 5.506,-10.518 c -3.498,-0.389 -8.072,-1.045 -14.07,-2.735 l -4.965,9.914 z m -8.506,-2.573 c 1.97,0.638 4.122,1.304 6.417,1.974 l 4.971,-9.925 c -1.875,-0.574 -3.89,-1.255 -6.033,-2.047 l -5.355,9.998 z m 36.168,-2.687 -5.759,10.156 c 8.539,2.033 30.218,29.903 36.517,38.202 2.748,-3.346 5.066,-6.845 5.61,-7.678 -5.275,-6.292 -12.935,-15.302 -19.932,-23.275 l -3.605,5.884 -11.633,-11.195 3.637,-7.507 c -2.225,-2.326 -3.923,-3.965 -4.835,-4.587 m 5.01,-0.801 c 4.532,2.788 10.7,10.369 12.761,12.986 l 1.808,-2.339 c -2.651,-2.769 -9.86,-9.778 -13.894,-11.706 -0.224,0.352 -0.445,0.695 -0.675,1.059 m 28.605,22.6 -9.816,-11.006 -1.123,0.606 9.193,10.618 1.746,-0.218 z m -16.965,-8.469 c -2.355,-3.011 -7.684,-8.476 -11.402,-11.369 2.894,2.951 6.616,7.716 10.701,12.338 l 0.701,-0.969 z m 2.481,-0.016 11.357,13.27 c 0,0 1.063,-0.353 1.973,-0.412 l -11.874,-13.643 -1.456,0.785 z m 20.782,13.6 -6.182,0 c -0.602,2.807 -0.409,4.67 0.084,5.921 l 5.97,0 c -0.892,-2.033 -0.502,-4.219 0.128,-5.921 m -33.083,-30.576 c 4.902,2.485 12.544,10.228 14.069,11.802 l 1.259,-1.633 c -3.645,-3.325 -11.195,-9.869 -14.573,-11.354 -0.243,0.383 -0.501,0.785 -0.755,1.185 m -40.077,-16.178 -4.122,7.575 c 2.18,0.953 4.237,1.793 6.182,2.533 l 3.885,-6.852 -0.335,-1.819 -5.726,-1.501 0.116,0.064 z m 74.91,55.49 -1.756,0.083 c 0.391,13.129 -6.761,20.036 -11.074,22.411 0.891,0.34 1.825,0.552 2.772,0.671 9.774,-4.897 10.085,-20.31 10.058,-23.165 m 21.399,-60.155 c -1.452,0.082 -2.905,0.16 -4.362,0.239 l 0,11.223 4.362,0 0,-11.462 z m 9.287,-0.561 c -0.972,0.063 -1.946,0.125 -2.923,0.185 l 0,11.643 c 0.855,0.026 1.9,-0.007 3.058,-0.113 -0.084,-1.234 -0.135,-2.018 -0.135,-2.018 l 0,-9.697 z m 0.21,12.783 c -0.883,0.086 -1.862,0.143 -2.796,0.129 l -0.184,8.785 c 1.183,0.121 2.503,-0.063 3.625,-0.308 -0.238,-2.874 -0.48,-6.228 -0.645,-8.606 m 0.734,9.679 c -1.145,0.24 -2.481,0.411 -3.735,0.298 l -0.092,4.441 4.239,-0.727 c -0.116,-0.82 -0.263,-2.277 -0.412,-4.012 m 71.95,-17.961 17.436,14.881 c 0.914,-2.445 1.278,-4.922 1.278,-4.922 l -16.255,-15.308 c -0.668,1.763 -1.473,3.561 -2.459,5.349 m 24.315,-36.549 c 0.032,-1.776 0.148,-3.491 0.336,-5.143 -0.822,0.341 -1.649,0.758 -2.488,1.237 -5.577,3.192 -13.407,11.248 -22.473,20.686 l 5.213,-0.826 c 1.436,-2.162 8.36,-11.856 19.412,-15.954 m -28.492,1.678 c -8.611,10.624 -16.747,20.656 -25.122,23.903 -1.623,0.629 -3.471,1.201 -5.509,1.723 -7.091,5.486 -18.148,13.139 -31.784,14.351 -0.524,2.867 -1.202,7.81 0.389,10.707 1.374,2.507 5.241,4.115 7.831,4.945 17.431,-2.855 38.07,-24.336 54.712,-41.662 9.683,-10.083 18.041,-18.789 24.232,-22.331 3.117,-1.782 6.014,-2.696 8.802,-2.696 0.397,0 0.789,0.019 1.183,0.056 0.911,-1.085 2.139,-3.907 2.187,-7.309 0.044,-2.9 -0.786,-7.677 -6.212,-9.556 -10.818,3.337 -20.894,15.764 -30.709,27.869 m -169.514,17.323 11.858,2.562 0.245,0.589 c 0.179,-0.303 0.351,-0.597 0.521,-0.883 l -0.417,-0.917 -11.647,-2.421 c -0.186,0.355 -0.372,0.711 -0.56,1.07 m 15.092,69.703 c 7.57,25.101 32.712,37.739 32.712,37.739 0,0 -0.56,-3.833 -0.003,-5.568 -7.698,-4.2 -20.494,-13.456 -28.972,-31.537 -7.879,-9.105 -15.047,-13.26 -18.457,-14.879 -5.212,-0.748 -22.535,-3.628 -29.511,-9.59 -0.579,0.762 -1.165,1.522 -1.757,2.283 4.922,3.563 15.869,8.252 24.772,11.56 4.938,-0.578 15.097,3.433 21.216,9.992 m -28.1,-6.279 c 1.551,-1.043 2.901,-1.912 3.969,-2.535 -1.16,-0.444 -2.436,-0.941 -3.78,-1.48 l -0.189,4.015 z m -9.356,6.615 c 2.554,-1.861 4.981,-3.6 7.146,-5.102 l 0.301,-6.384 c -1.911,-0.789 -3.903,-1.643 -5.867,-2.536 l -1.58,14.022 z m -2.341,1.717 0.162,-1.445 c -1.45,-0.174 -3.428,-0.312 -5.706,-0.361 l -0.703,6.451 c 2.077,-1.559 4.184,-3.126 6.247,-4.645 m -28.783,19.481 c 1.806,-2.094 4.485,-3.378 8.275,-3.985 0.285,-0.22 0.567,-0.437 0.871,-0.669 l 1.931,-15.966 c -4.172,0.594 -8.215,1.638 -11.304,3.345 -0.259,0.258 -0.518,0.514 -0.777,0.77 -1.443,9.074 -4.736,29.084 -5.979,30.626 -0.146,-0.009 -0.296,-0.018 -0.449,-0.024 0.029,3.719 0.275,9.217 1.203,15.639 l 3.471,0 c 0.931,-5.676 0.353,-13.029 0.068,-16.622 l -0.025,-0.301 c -0.482,-6.121 0.355,-10.073 2.715,-12.813 m -23.591,14.165 c 1.135,4.169 2.675,9.472 4.689,15.736 l 4.712,0.385 c -0.902,-6.714 -1.021,-12.386 -1.038,-16.311 -3.27,0.026 -6.391,0.12 -8.363,0.19 m 35.876,-44.765 c -1.61,1.837 -3.257,3.662 -4.94,5.48 1.432,-0.301 2.894,-0.546 4.366,-0.736 l 0.574,-4.744 z m 18.375,-5.572 c -1.942,-0.922 -3.813,-1.874 -5.493,-2.826 l -0.668,6.121 5.625,1.48 0.536,-4.775 z m -0.778,6.921 -5.616,-1.477 -0.471,4.319 c 2.287,0.066 4.269,0.221 5.722,0.408 l 0.365,-3.25 z m -15.093,-4.249 -0.898,7.404 c 2.594,-0.247 5.152,-0.351 7.493,-0.351 0.091,0 0.176,0.004 0.266,0.004 l 1.5,-13.758 c -0.666,-0.42 -1.283,-0.835 -1.844,-1.249 -2.102,2.661 -4.274,5.314 -6.517,7.95 m -11.181,12.334 c 5.583,-1.743 12.273,-2.29 17.776,-2.29 3.134,0 5.866,0.177 7.799,0.407 l 0.094,-0.827 c -4.767,-0.614 -16.121,-0.903 -24.634,1.63 -0.344,0.361 -0.686,0.721 -1.035,1.08 m -11.72,58.54 c -2.036,-9.705 -2.484,-18.215 -2.519,-23.381 -0.458,-0.009 -0.922,-0.016 -1.393,-0.019 0.022,5.211 0.232,13.567 2.304,23.312 0.58,0.098 1.11,0.122 1.608,0.088 m 156.524,-42.495 -10.547,-10.096 c -2.671,5.272 -7.536,13.754 -10.096,18.162 0.647,0.808 1.523,1.401 2.432,1.83 5.93,0.97 14.299,-6.166 18.211,-9.896 m 94.711,-44.634 c 0.024,-0.427 -0.026,-0.922 -0.284,-1.38 -0.48,-0.867 -1.578,-1.444 -3.261,-1.721 -3.287,-0.536 -17.286,0.643 -28.532,1.593 -11.257,0.949 -18.248,1.518 -20.06,1.233 -2.205,-0.338 -8.936,4.596 -13.677,8.728 0.531,1.539 0.892,3.109 1.101,4.688 3.096,-2.373 12.051,-8.23 25.069,-8.23 2.219,0 4.561,0.175 7.011,0.564 12.129,-2.044 24.392,-4.097 32.633,-5.475 m 49.737,-76.544 c -1.486,-4.087 -7.284,-14.71 -18.687,-20.189 -0.269,1.311 -0.733,2.583 -1.437,3.769 -2.249,3.787 -6.346,6.163 -10.953,6.356 l -0.034,-0.748 c -1.569,-0.232 -3.126,-0.248 -4.666,-0.058 4.47,2.893 5.011,7.888 4.976,10.328 -0.038,2.718 -0.829,5.73 -2.043,7.709 4.671,1.335 9.144,5.445 13.946,12.531 3.652,-1.629 12.331,-6.474 18.041,-17.656 l 0.857,-2.042 z m 9.366,8.881 c -0.817,-1.862 -1.68,-3.563 -2.616,-5.038 -2.394,3.587 -9.084,15.38 -9.688,35.768 1.352,0.729 2.79,1.549 4.282,2.458 -0.051,-5.136 0.289,-24.414 8.022,-33.188 m -7.902,-8.503 c -3.783,6.932 -9.404,24.911 -10.376,36.272 1.112,0.502 2.419,1.12 3.874,1.86 0.866,-21.849 8.392,-33.67 10.469,-36.532 -0.981,-1.229 -2.043,-2.205 -3.207,-2.881 -0.026,0.044 -0.76,1.281 -0.76,1.281 M 571.616,349.285 c 0.252,-0.945 0.106,-1.722 -0.466,-2.442 -0.75,-0.947 -2.145,-1.678 -3.798,-2.191 -5.398,2.814 -5.982,11.742 -4.098,16.313 2.645,-2.362 5.069,-3.568 7.225,-3.568 0.387,0 0.761,0.043 1.132,0.121 0.413,-2.189 0.914,-5.864 0.482,-8.106 l -0.477,-0.127 z m -209.602,186.427 -1.772,0.983 c 0.603,-0.314 1.196,-0.639 1.772,-0.983 m -10.795,5.759 4.37,8.066 0.771,-1.501 9.732,18.097 -0.16,0.445 c -0.447,1.256 -1.732,3.584 -3.416,4.921 5.648,1.466 11.473,3.681 14.577,6.96 1.746,1.841 2.451,3.547 2.53,5.085 1.018,0.315 2.845,1.036 5.138,2.571 -1.924,-4.618 -3.354,-9.147 -4.42,-13.46 -2.562,-0.766 -5.429,-2.277 -8.641,-4.561 l -0.568,-0.404 -0.222,-0.66 c -4.975,-14.928 -7.504,-25.147 -8.42,-29.143 -3.531,2.044 -7.632,3.642 -11.271,3.584 m -23.176,-33.814 c -0.539,0.411 -1.149,0.83 -1.818,1.243 l 24.217,43.387 c 0.344,-0.67 0.606,-1.321 0.755,-1.883 l -23.154,-42.747 z m -33.488,16.329 c 11.102,4.41 29.767,24.771 38.591,35.3 l 1.21,0.235 -10.562,-20.941 c -8.418,-6.689 -27.657,-21.797 -33.639,-24.832 1.508,-0.407 2.997,-0.732 4.414,-0.997 5.087,-1.81 8.978,-5.479 10.67,-7.29 l -1.19,-1.601 c -2.605,2.757 -10.21,9.909 -18.286,9.146 -0.207,0.272 -0.458,0.535 -0.736,0.792 -0.62,2.051 -0.381,3.915 0.727,5.543 1.428,2.095 4.006,3.463 6.181,4.121 l 2.202,0.441 c 0.024,0.002 0.056,0.008 0.082,0.01 l 0,0.005 0.336,0.068 z m -11.23,-11.482 c -2.097,-0.721 -3.793,-2.369 -4.582,-4.52 -0.493,-1.334 -0.503,-2.567 -0.101,-3.441 l -6.926,-13.499 c -0.579,-0.192 -1.49,-0.251 -2.514,-0.215 2.821,2.559 4.599,7.746 4.374,13.8 -0.2,5.366 -1.952,9.968 -4.465,12.559 4.845,-0.581 11.521,-2.412 14.214,-4.684 m -11.883,-7.954 c 0.242,-6.508 -2.147,-12.18 -5.35,-13.14 -7.216,9.06 -2.287,23.187 0.816,24.919 2.445,-1.928 4.34,-6.542 4.534,-11.779 m 9.338,-0.514 c 1.844,0.663 3.957,0.719 6.388,0.14 -3.467,-7.194 -16.352,-34.312 -21.133,-44.381 -1.987,0.985 -4.126,1.994 -6.405,3.018 l 21.15,41.223 z m -9.294,-57.903 -27.926,-54.952 c -5.407,7.019 -10.732,14.653 -11.439,16.919 0.672,1.952 1.488,4.073 2.347,6.305 3.18,8.269 6.785,17.642 5.249,24.17 -1.485,6.313 -12.232,36.718 -79.274,27.197 -12.701,1.302 -42.242,0.755 -67.62,-8.501 -1.417,-0.478 -2.207,-0.141 -2.321,1.05 7.68,3.934 15.226,6.92 22.071,9.179 56.08,18.508 125.905,2.813 158.913,-21.367 m -66.333,-24.644 c 8.165,-1.785 16.336,-4.446 24.389,-8.002 -0.598,-1.577 -1.16,-3.096 -1.646,-4.538 l -0.124,-0.367 0.005,-0.125 c -16.583,-8.036 -28.46,-28.238 -33.69,-43.508 -4.372,-12.767 -5.045,-24.196 -1.869,-30.889 l -6.301,-4.754 c -7.844,26.74 3.832,48.544 12.4,64.541 6.092,11.373 11.116,20.762 6.836,27.642 m -42.165,1.307 c 11.497,1.901 23.484,1.891 35.563,-0.052 6.949,-5.947 2.209,-14.807 -4.798,-27.889 -4.947,-9.238 -10.907,-20.378 -13.686,-33.302 -0.165,-0.008 -0.323,-0.004 -0.488,-0.011 -7.769,-0.324 -15.174,-2.001 -22.041,-4.775 -6.554,21.525 -6.648,48.194 5.45,66.029 m -33.434,-11.89 c 9.491,5.478 19.787,9.282 30.555,11.377 -13.525,-21.867 -10.586,-55.162 -0.231,-77.789 5.854,-12.791 13.327,-20.788 20.694,-22.239 l -0.929,-2.532 c -0.608,-1.357 -1.129,-2.768 -1.554,-4.228 l -0.854,-2.328 c -27.745,22.717 -32.095,47.534 -35.6,67.526 -2.367,13.525 -3.745,23.952 -12.081,30.213 M 94.637,376.47 c 6.943,11.568 16.14,21.712 27.548,29.746 0.842,0.595 1.695,1.166 2.555,1.73 8.481,-5.863 10.409,-16.721 12.763,-30.161 1.521,-8.672 3.204,-18.235 6.823,-28.153 -7.851,-5.457 -14.538,-12.564 -19.667,-20.816 -13.608,13.317 -25.073,30.494 -30.022,47.654 m -12.64,-31.647 c 2.378,10.316 6.112,20.126 11.179,29.133 5.578,-17.581 18.147,-36.256 34.251,-50.674 17.113,-15.321 35.336,-23.111 49.052,-21.011 l 2.183,-10.216 c -33.755,2.34 -54.791,22.151 -70.205,36.67 -10.519,9.907 -18.452,17.371 -26.46,16.098 m -1.11,-50.787 c -2.732,15.786 -2.652,31.519 0.165,46.329 7.429,2.19 15.285,-5.207 25.939,-15.243 3.373,-3.177 7.015,-6.603 10.993,-10.049 -3.231,-8.923 -4.83,-18.671 -4.41,-28.829 0.134,-3.217 0.488,-6.37 1.003,-9.462 -15.474,3.452 -27.181,9.428 -33.69,17.254 m 9.912,-32.95 c -4.152,9.54 -7.213,19.29 -9.188,29.05 8.455,-8.282 22.732,-14.259 41.094,-17.049 25.669,-3.901 54.118,-0.502 65.484,7.734 l 5.081,-3.459 c -25.334,-19.181 -54.358,-16.123 -75.642,-13.883 -12.885,1.359 -22.761,2.378 -26.829,-2.393 m 33.211,-48.163 c -6.509,6.363 -12.57,13.448 -18.052,21.228 -5.524,7.844 -10.18,16.003 -13.998,24.336 4.257,2.489 12.747,1.594 23.463,0.468 1.515,-0.158 3.074,-0.323 4.662,-0.481 7.151,-15.937 19.626,-28.646 34.919,-35.713 -8.614,-4.423 -18.886,-8.004 -30.994,-9.838 m 25.939,-20.224 c -7.602,4.635 -14.904,10.076 -21.767,16.291 39.865,6.771 59.616,32.323 66.363,43.236 5.505,8.903 8.475,17.767 7.745,22.823 l 6.939,0.316 c -0.585,-28.992 -23.957,-48.276 -41.076,-62.406 -9.857,-8.133 -17.49,-14.433 -18.204,-20.26 m 43.901,-17.111 c -14.288,2.7 -28.457,8.043 -41.767,15.839 -0.334,5.221 7.621,11.791 17.428,19.885 2.18,1.797 4.46,3.679 6.78,5.653 3.054,-0.305 6.156,-0.416 9.304,-0.286 12.078,0.504 23.29,4.237 32.926,10.368 C 214.835,209 207.267,189.988 193.85,175.588 m 46.795,0.982 c -13.337,-3.3 -27.352,-3.87 -41.347,-1.883 18.503,20.215 24.453,47.124 26.356,61.727 2.757,21.189 0.379,39.776 -3.551,45.967 1.416,1.266 2.715,2.684 3.882,4.236 12.971,-19.599 9.66,-46.003 6.983,-67.277 -2.11,-16.78 -3.934,-31.272 2.284,-38.829 1.43,-1.737 3.221,-3.041 5.393,-3.941 m 30.571,13.404 c -8.336,-5.535 -17.291,-9.621 -26.623,-12.34 -3.342,0.649 -5.883,2.039 -7.69,4.235 -5.637,6.846 -3.865,20.915 -1.815,37.204 1.018,8.09 2.124,16.91 2.415,25.841 6.073,8.319 10.45,18.051 12.621,28.616 13.107,-19.895 25.238,-50.815 21.092,-83.556 m 30.325,32.189 c -5.411,-9.229 -12.244,-17.569 -20.466,-24.69 -1.595,-1.38 -3.239,-2.718 -4.935,-4.005 2.684,29.901 -7.886,55.86 -14.634,68.97 -10.224,19.864 -22.423,32.384 -29.753,35.078 l 1.349,5.695 c 19.765,-8.432 30.996,-28.476 40.926,-46.198 9.195,-16.412 17.207,-30.708 29.823,-30.68 -0.738,-1.409 -1.51,-2.8 -2.31,-4.17 m -38.079,136.955 2.227,4.323 c 8.497,3.22 19.954,-0.189 25.653,-2.324 2.439,-3.609 4.699,-7.28 6.783,-10.999 -3.707,2.956 -9.18,5.789 -15.172,7.685 -4.607,1.457 -12.759,3.357 -19.491,1.315 m -18.052,-35.033 16.572,32.159 c 4.705,2.295 12.083,2.131 20.326,-0.476 7.394,-2.342 15.543,-7.522 18.857,-11.362 7.538,-14.917 12.309,-30.505 14.378,-45.952 -2.559,-1.323 -5.011,-1.976 -7.468,-1.976 l -10e-4,0 c -6.176,10e-4 -11.888,4.044 -19.119,9.164 -10.24,7.245 -22.963,16.229 -43.545,18.443 m -9.095,-12.539 -14.943,-14.3 c -0.603,1.047 -1.616,2.564 -3.079,4.025 l 14.305,14.785 c 1.767,-1.782 3.06,-3.406 3.717,-4.51 m 6.212,-51.265 c 0,-1.619 -1.142,-2.932 -2.554,-2.932 -1.411,0 -2.555,1.313 -2.555,2.932 0,1.621 1.144,2.934 2.555,2.934 1.412,0 2.554,-1.313 2.554,-2.934 m -2.554,15.778 c 1.412,0 2.554,-1.313 2.554,-2.932 0,-1.619 -1.142,-2.935 -2.554,-2.935 -1.411,0 -2.555,1.316 -2.555,2.935 0,1.619 1.144,2.932 2.555,2.932 m -13.743,45.273 -10.441,-17.998 c -2.068,1.381 -4.678,2.404 -7.909,2.404 -0.1,0 -0.198,-0.002 -0.297,-0.004 l 6.162,20.951 c 4.659,-0.855 8.919,-2.937 12.485,-5.353 m -19.686,-25.501 c 0.742,-0.78 1.52,-1.404 2.18,-2.034 0.704,-0.591 1.319,-1.109 1.824,-1.532 0.534,-0.394 0.942,-0.759 1.231,-0.988 0.284,-0.246 0.435,-0.375 0.435,-0.375 0,0 -0.197,0.011 -0.569,0.03 -0.365,0.04 -0.918,0.061 -1.606,0.163 -0.685,0.106 -1.515,0.277 -2.466,0.509 -0.925,0.298 -2.002,0.609 -3.103,1.147 -0.567,0.238 -1.134,0.536 -1.711,0.879 -0.589,0.321 -1.172,0.701 -1.753,1.132 -1.185,0.827 -2.315,1.899 -3.386,3.119 -0.509,0.632 -1.03,1.286 -1.469,2.01 -0.222,0.363 -0.446,0.726 -0.668,1.093 -0.187,0.389 -0.375,0.78 -0.563,1.173 -0.715,1.586 -1.238,3.311 -1.476,5.075 -0.215,1.766 -0.224,3.551 0.032,5.268 0.254,1.716 0.754,3.351 1.405,4.839 0.638,1.502 1.509,2.821 2.411,3.979 0.904,1.162 1.957,2.096 2.948,2.878 1.038,0.742 2.03,1.333 2.979,1.711 0.466,0.198 0.901,0.371 1.331,0.472 0.419,0.118 0.798,0.222 1.165,0.276 0.712,0.162 1.251,0.154 1.62,0.162 0.372,0.002 0.572,0.002 0.572,0.002 0,0 -0.158,-0.122 -0.454,-0.349 -0.149,-0.108 -0.333,-0.243 -0.55,-0.401 -0.195,-0.165 -0.418,-0.356 -0.671,-0.57 -0.244,-0.193 -0.498,-0.449 -0.772,-0.726 -0.272,-0.268 -0.562,-0.556 -0.841,-0.893 -0.588,-0.632 -1.154,-1.419 -1.726,-2.259 -0.536,-0.88 -1.094,-1.809 -1.533,-2.865 -0.445,-1.045 -0.864,-2.152 -1.143,-3.329 -0.283,-1.173 -0.479,-2.388 -0.572,-3.62 -0.055,-1.234 -0.03,-2.478 0.147,-3.701 0.131,-1.231 0.492,-2.415 0.875,-3.574 0.391,-1.162 0.966,-2.243 1.547,-3.303 0.642,-1.021 1.297,-2.033 2.061,-2.915 0.183,-0.227 0.366,-0.453 0.544,-0.675 0.198,-0.21 0.392,-0.421 0.582,-0.622 0.189,-0.212 0.376,-0.419 0.559,-0.623 0.2,-0.192 0.394,-0.38 0.584,-0.563 m 13.875,-1.541 c -3.757,-1.911 -8.355,0.607 -9.463,1.194 -1.837,0.867 -3.026,2.32 -3.724,4.179 0.791,-1.137 2.03,-2.308 3.79,-3.376 3.682,-2.235 7.446,-2.531 9.197,-1.515 l 0.2,-0.482 z m -1.752,56.476 c 2.479,2.263 5.139,4.623 7.882,6.944 l -4.653,-9.153 c -1.054,0.768 -2.133,1.5 -3.229,2.209 m -22.489,-0.91 c 0,2.405 1.7,4.355 3.795,4.355 2.095,0 3.793,-1.95 3.793,-4.355 0,-2.406 -1.698,-4.358 -3.793,-4.358 -2.095,0 -3.795,1.952 -3.795,4.358 m 46.1,-32.892 2.764,5.026 c 20.124,-2.127 32.618,-10.97 42.677,-18.094 7.243,-5.125 13.498,-9.554 20.352,-9.554 l 0.004,0 c 2.579,0 5.126,0.614 7.745,1.864 1.349,-11.5 1.201,-22.894 -0.409,-33.852 -19.631,35.747 -61.877,53.405 -73.133,54.61 m 60.395,-88.438 c -10.765,0.936 -18.238,14.287 -26.781,29.532 -6.763,12.067 -14.121,25.195 -24.378,35.169 -0.345,5.986 -1.377,11.76 -3.009,17.251 17.214,-6.061 50.768,-24.651 65.526,-55.79 -1.962,-9.172 -4.994,-17.967 -9.064,-26.171 -0.506,-0.038 -1.004,-0.055 -1.496,-0.04 l -0.018,0.126 c -0.263,-0.036 -0.522,-0.055 -0.78,-0.077 m -124.83,77.657 c 0,16.314 11.991,29.588 26.73,29.588 2.938,0 5.814,-0.525 8.542,-1.545 -1.411,0.281 -2.85,0.425 -4.292,0.425 -13.267,0 -24.059,-11.897 -24.059,-26.525 0,-14.627 10.792,-26.526 24.059,-26.526 7.866,0 15.113,4.301 19.552,11.095 -4.465,-9.678 -13.542,-16.1 -23.802,-16.1 -14.739,0 -26.73,13.272 -26.73,29.588 m -32.468,-9.612 c 0.172,0.021 0.342,0.06 0.52,0.06 1.484,0 2.803,-0.761 3.718,-1.945 0.78,-1.011 1.27,-2.326 1.27,-3.782 0,-3.165 -2.237,-5.731 -4.988,-5.731 -2.755,0 -4.991,2.566 -4.991,5.731 0,2.959 1.965,5.366 4.471,5.667 m -26.02,6.679 c 0,1.618 1.145,2.932 2.556,2.932 1.41,0 2.555,-1.314 2.555,-2.932 0,-1.62 -1.145,-2.936 -2.555,-2.936 -1.411,0 -2.556,1.316 -2.556,2.936 m 2.556,-20.007 c -1.411,0 -2.556,1.315 -2.556,2.936 0,1.618 1.145,2.931 2.556,2.931 1.41,0 2.555,-1.313 2.555,-2.931 0,-1.621 -1.145,-2.936 -2.555,-2.936 m 10.315,6.909 c -1.411,0 -2.555,1.316 -2.555,2.934 0,1.621 1.144,2.933 2.555,2.933 1.409,0 2.554,-1.312 2.554,-2.933 0,-1.618 -1.145,-2.934 -2.554,-2.934 m 5.108,-36.104 c 1.412,0 2.555,-1.314 2.555,-2.933 0,-1.621 -1.143,-2.933 -2.555,-2.933 -1.409,0 -2.554,1.312 -2.554,2.933 0,1.619 1.145,2.933 2.554,2.933 m 31.768,-1.109 c 0,3.164 2.234,5.727 4.988,5.727 2.754,0 4.989,-2.563 4.989,-5.727 0,-3.162 -2.235,-5.731 -4.989,-5.731 -2.754,0 -4.988,2.569 -4.988,5.731 m 51.067,-16.098 c -0.461,-0.53 -1.1,-0.862 -1.805,-0.862 -1.412,0 -2.555,1.316 -2.555,2.936 0,1.618 1.143,2.931 2.555,2.931 0.964,0 1.791,-0.619 2.227,-1.525 0.202,-0.418 0.327,-0.893 0.327,-1.406 0,-0.81 -0.287,-1.542 -0.749,-2.074 m 0.914,26.859 c -0.916,-1.311 -2.304,-2.167 -3.881,-2.167 -2.753,0 -4.988,2.564 -4.988,5.729 0,3.163 2.235,5.726 4.988,5.726 1.047,0 2.016,-0.374 2.819,-1.006 1.308,-1.033 2.171,-2.76 2.171,-4.72 0,-1.353 -0.425,-2.579 -1.109,-3.562 M 210.31,232.52 c 1.409,0 2.554,-1.313 2.554,-2.932 0,-1.619 -1.145,-2.935 -2.554,-2.935 -1.41,0 -2.555,1.316 -2.555,2.935 0,1.619 1.145,2.932 2.555,2.932 m -12.499,-2.933 c 1.412,0 2.554,-1.315 2.554,-2.933 0,-1.62 -1.142,-2.933 -2.554,-2.933 -1.409,0 -2.553,1.313 -2.553,2.933 0,1.618 1.144,2.933 2.553,2.933 m -4.237,4.632 c 0.702,0.57 1.387,1.197 2.059,1.861 8.052,7.949 13.854,21.86 14.677,26.064 l 11.053,-10.336 2.022,-1.887 0.009,-0.011 c -0.002,-0.005 -0.009,-0.013 -0.011,-0.016 -0.275,-0.538 -1.046,-1.404 -2.2,-2.462 -4.967,-4.558 -17.012,-12.653 -27.082,-13.184 -0.177,-0.011 -0.353,-0.024 -0.527,-0.029 m -46.839,7.627 c 1.411,0 2.554,-1.313 2.554,-2.931 0,-1.62 -1.143,-2.936 -2.554,-2.936 -1.41,0 -2.554,1.316 -2.554,2.936 0,1.618 1.144,2.931 2.554,2.931 m -14.509,83.998 c -1.411,0 -2.555,1.313 -2.555,2.934 0,1.618 1.144,2.932 2.555,2.932 1.409,0 2.554,-1.314 2.554,-2.932 0,-1.621 -1.145,-2.934 -2.554,-2.934 m 9.4,10.461 c -1.411,0 -2.554,1.315 -2.554,2.934 0,1.618 1.143,2.932 2.554,2.932 1.411,0 2.555,-1.314 2.555,-2.932 0,-1.619 -1.144,-2.934 -2.555,-2.934 m 24.921,13.551 c 0,1.62 1.142,2.933 2.555,2.933 1.408,0 2.554,-1.313 2.554,-2.933 0,-1.62 -1.146,-2.934 -2.554,-2.934 -1.413,0 -2.555,1.314 -2.555,2.934 m 61.744,56.472 c 0.412,-1.013 1.07,-2.241 1.875,-3.593 -5.757,-5.354 -16.783,-23.162 -0.382,-38.66 l -0.805,-1.587 c -4.21,-3.408 -8.37,-7.094 -12.124,-10.575 -6.711,4.06 -14.114,6.973 -21.958,8.488 0.367,1.269 0.765,2.552 1.211,3.858 5.05,14.745 16.411,34.19 32.183,42.069 m 74.466,95.782 -2.409,-3.247 c -1.099,1.368 -3.255,3.02 -5.677,4.299 l 0.004,0.004 c -0.032,0.016 -0.066,0.03 -0.099,0.048 -0.178,0.09 -0.351,0.177 -0.528,0.263 -4.818,2.387 -9.431,3.686 -12.901,2.915 l -0.569,0.292 c 0.041,0.18 0.098,0.376 0.178,0.587 0.232,0.624 1.186,2.712 3.655,3.341 7.851,2.003 16.093,-6.084 18.346,-8.502 m 6.997,-17.285 -82.184,-161.818 c -3.252,2.22 -7.048,4.164 -11.187,5.268 l 1.86,3.661 c -0.003,0.001 -0.005,0.001 -0.008,0.001 l 0.12,0.233 c 0.004,0 0.005,-0.001 0.005,-0.004 l 79.069,155.588 0.002,0.002 c 3.916,0.326 8.394,-0.971 12.323,-2.931 m -2.8,-261.753 c 22.197,40.93 18.436,97.184 -13.796,142.94 -3.876,5.503 -8.113,10.751 -12.616,15.678 1.848,1.067 3.837,2.12 5.948,3 0.576,-0.615 1.378,-1.467 2.391,-2.545 1.044,-1.171 2.353,-2.56 3.783,-4.213 1.425,-1.662 3.053,-3.525 4.703,-5.647 1.72,-2.075 3.402,-4.453 5.215,-6.947 0.856,-1.283 1.736,-2.6 2.634,-3.944 0.906,-1.343 1.702,-2.795 2.586,-4.23 0.427,-0.725 0.879,-1.441 1.295,-2.19 0.4,-0.753 0.802,-1.517 1.21,-2.282 0.785,-1.544 1.693,-3.054 2.39,-4.681 0.741,-1.609 1.49,-3.229 2.241,-4.858 0.686,-1.654 1.324,-3.339 1.994,-5.011 0.319,-0.841 0.68,-1.671 0.97,-2.522 l 0.845,-2.562 c 0.547,-1.708 1.154,-3.398 1.651,-5.103 0.458,-1.718 0.916,-3.42 1.368,-5.103 0.224,-0.843 0.446,-1.681 0.669,-2.513 0.176,-0.843 0.351,-1.679 0.525,-2.508 0.689,-3.319 1.415,-6.524 1.809,-9.611 0.455,-3.079 0.978,-5.983 1.175,-8.697 0.267,-2.709 0.512,-5.19 0.727,-7.392 0.106,-2.207 0.198,-4.134 0.275,-5.719 0.152,-3.176 0.24,-4.99 0.24,-4.99 0,0 -0.022,1.816 -0.06,4.995 -0.015,1.59 -0.037,3.522 -0.062,5.737 -0.135,2.211 -0.287,4.707 -0.453,7.43 -0.101,2.731 -0.518,5.662 -0.86,8.773 -0.282,3.122 -0.892,6.369 -1.467,9.741 -0.145,0.842 -0.291,1.693 -0.436,2.549 -0.193,0.847 -0.386,1.701 -0.58,2.558 -0.395,1.718 -0.793,3.458 -1.196,5.209 -0.438,1.746 -0.986,3.475 -1.478,5.227 l -0.763,2.632 c -0.263,0.875 -0.596,1.729 -0.892,2.594 -0.614,1.724 -1.204,3.461 -1.84,5.173 -0.703,1.683 -1.404,3.361 -2.099,5.028 -0.654,1.687 -1.518,3.259 -2.264,4.866 -0.387,0.797 -0.77,1.591 -1.15,2.379 -0.394,0.779 -0.833,1.531 -1.242,2.288 -0.846,1.499 -1.609,3.016 -2.484,4.424 -0.872,1.413 -1.722,2.795 -2.551,4.14 -1.762,2.619 -3.4,5.127 -5.079,7.313 -1.616,2.241 -3.203,4.2 -4.598,5.952 -1.403,1.745 -2.688,3.216 -3.716,4.454 -0.406,0.466 -0.767,0.88 -1.104,1.264 2.805,0.715 5.771,0.989 8.862,0.499 2.73,-2.859 3.868,-5.066 6.326,-8.557 31.294,-44.427 35.836,-100.245 20.244,-139.445 -5.36,-5.79 -11.804,-10.981 -19.29,-15.573 m 94.624,149.024 -1.025,-0.348 c -5.949,4.864 -15.273,12.906 -15.639,14.367 -0.433,1.716 0.587,4.365 2.18,5.668 0.453,0.369 1.074,0.727 1.802,0.774 -1.573,-1.528 -3.732,-4.461 -1.361,-7.203 2.654,-3.068 11.195,-10.722 14.043,-13.258 m -16.904,18.333 c -0.574,-1.07 -0.896,-2.261 -0.91,-3.358 l -20.775,-5.828 c -0.772,1.334 -0.349,3.056 -0.145,3.699 l 21.83,5.487 z M 56.782,201.865 c 55.594,-78.922 161.704,-99.898 237.011,-46.855 19.252,13.561 34.608,30.658 45.902,49.898 3.034,0.588 6.305,1.238 9.839,1.954 l -0.193,0.941 3.292,-1.454 c 25.318,57.36 16.109,109.584 3.925,143.294 -14.417,39.888 -38.397,70.278 -54.581,84.216 l 20.779,40.325 -0.025,0.306 c -0.035,0.414 -0.135,0.842 -0.267,1.277 l 8.661,28.611 0.398,0.731 c 2.048,-1.811 4.592,-3.407 7.374,-4.606 3.472,-1.497 7.056,-2.287 10.293,-2.287 0.662,0 1.305,0.033 1.932,0.1 3.924,0.413 6.709,2.086 7.842,4.709 l 1.604,3.654 c 17.364,-12.981 39.186,-40.391 57.171,-71.855 9.545,-16.7 16.933,-32.606 21.866,-46.809 -17.692,-5.004 -17.675,-5.447 -17.622,-6.457 l 0.018,-0.019 c -0.092,-0.279 -0.146,-0.546 -0.213,-0.819 l -0.154,0.375 -15.01,-4.088 c -2.229,2.394 -15.854,16.989 -16.506,16.57 -0.03,-0.016 -0.073,-0.05 -0.115,-0.079 -1.208,0.333 -2.458,0.034 -3.584,-0.888 -0.304,-0.248 -0.579,-0.542 -0.842,-0.852 l -23.542,-5.918 -0.1,-0.255 c -0.648,-1.648 -1.063,-5.139 2.012,-6.556 l 0.167,-0.076 0.177,0.042 c 6.364,1.458 18.833,4.517 20.882,5.02 3.467,-3.868 12.775,-11.52 14.932,-13.28 l 0.231,-0.188 2.166,0.73 c 0.006,-0.007 0.019,-0.018 0.019,-0.018 l 5.342,1.529 17.782,-3.716 c 0.62,-0.63 1.082,-1.003 1.153,-1.059 l 0.431,-0.337 11.296,3.255 c 1.33,-4.077 0.52,-11.398 -2.14,-12.947 -1.898,-1.107 -4.979,1.067 -8.459,5.951 l -0.319,0.448 -0.55,0 c -8.619,0 -10.707,-0.4 -11.369,-0.776 l -50.959,-7.509 -0.24,-0.529 c -2.354,-5.151 1.667,-11.375 1.84,-11.635 l 0.369,-0.565 53.904,7.364 c 3.583,-6.463 8.968,-14.467 16.25,-20.878 0.689,-1.167 1.259,-2.066 1.586,-2.572 l 0.744,-1.145 19.87,2.821 c 6.09,-7.674 12.697,-12.904 17.382,-12.904 0.129,0 0.256,0.003 0.383,0.011 l 0.825,0.053 0.575,0.592 c 2.561,2.648 19.542,9.261 30.499,13.127 l 15.38,2.365 c 7.554,-3.314 13.799,-5.315 17.531,-5.315 0.616,0 1.159,0.055 1.635,0.166 4.602,1.076 60.424,25.405 86.384,36.77 23.221,-11.767 52.429,-15.783 83.5,6.523 25.567,18.354 21.85,61.997 19.181,79.342 2.285,0.111 4.533,-0.015 6.572,-0.131 0.494,-0.028 0.974,-0.055 1.433,-0.079 l 0.657,-0.031 0.323,0.571 c 0.77,1.357 1.149,3.808 -1.413,7.779 -2.299,3.567 -6.233,7.34 -10.676,10.428 -3.244,15.736 -10.304,33.777 -14.285,40.461 l 1.513,-1.513 c 4.552,4.554 0.117,11.311 -1.342,13.53 L 714.92,521 c -5.675,8.787 -22.232,29.404 -53.334,31.053 -37.518,1.995 -62.036,-16.838 -67.188,-24.373 -12.627,-5.957 -19.484,-13.047 -20.912,-14.623 -0.497,0.25 -0.981,0.497 -1.44,0.736 -2.009,1.039 -3.638,1.971 -4.773,2.626 -0.988,0.597 -3.652,2.213 -4.256,2.58 -3.754,3.997 -8.693,6.829 -14.414,7.018 -4.125,4.4 -43.111,45.798 -56.761,53.075 -1.339,1.691 -2.881,3.15 -4.631,4.189 -10.967,10.917 -44.496,23.327 -73.191,16.308 -1.43,2.564 -4.861,6.889 -6.898,8.287 2.65,2.743 5.61,5.311 8.928,7.637 17.796,12.475 106.577,50.948 132.373,55.995 4.41,0.863 7.902,3.752 9.342,7.729 1.228,3.403 0.72,7.103 -1.299,9.751 l -3.207,7.147 42.422,23.61 c 0.654,-0.876 1.358,-1.538 2.171,-1.795 0.255,-0.08 0.514,-0.122 0.776,-0.122 0.428,0 0.856,0.111 1.267,0.332 0.668,0.361 1.517,1.126 1.772,2.721 0.543,3.425 -2.094,9.284 -4.416,12.306 0.015,0.039 0.035,0.075 0.05,0.113 0.582,1.587 0.644,4.052 -2.356,6.796 -2.9,2.646 -6.742,1.366 -9.264,-1.077 -1.524,-1.477 -2.636,-3.461 -2.055,-4.903 -2.364,-2.605 -20.663,-13.248 -37.391,-22.326 l -0.521,1.155 -18.795,-8.512 -4.342,14.454 c 21.114,11.399 52.425,35.165 51.802,44.253 -0.072,1.043 -0.569,2.438 -2.537,3.161 -10.718,3.929 -52.011,-18.331 -59.565,-28.402 l -0.272,-0.365 0.074,-0.451 c 0.364,-2.177 4.35,-17.216 7.009,-27.15 l -21.693,-11.138 2.367,-6.662 -0.748,-0.338 0.874,-1.529 c 0.025,-0.047 1.463,-2.609 2.596,-5.856 -19.82,-15.176 -55.869,-25.359 -84.877,-33.549 -12.622,-3.565 -23.3,-6.582 -30.851,-9.453 l 0.003,0.115 c -6.885,0.611 -11.871,-0.716 -14.722,-3.912 -0.215,-0.243 -0.408,-0.492 -0.589,-0.74 l -0.048,0.289 c -5.944,-0.964 -15.375,-6.254 -13.522,-19.933 l -26.584,-25.761 c -12.56,7.947 -34.512,14.588 -60.466,10.302 -0.033,0 -0.065,0.003 -0.097,0.003 -0.862,0 -1.718,-0.108 -2.544,-0.319 -4.544,-1.168 -7.951,-5.336 -9.587,-11.741 -1.553,-6.071 -1.354,-13.523 0.56,-20.988 3.667,-14.289 12.547,-24.662 21.121,-24.662 0.576,0 1.145,0.065 1.706,0.161 l 0.002,-0.029 c 7.97,0.569 15.535,2.558 22.411,5.282 l -11.36,-23.554 c -2.819,-0.475 -6.915,-2.243 -9.05,-5.377 -1.039,-1.521 -1.506,-3.236 -1.415,-5.047 -5.309,2.892 -14.396,4.421 -17.938,3.92 l 0,-0.006 c -0.066,0.004 -0.133,0.017 -0.199,0.017 l -0.221,-0.005 c -4.925,-0.201 -8.538,-7.014 -8.22,-15.506 0.308,-8.298 4.321,-14.798 9.136,-14.798 l 0.088,0.002 c 0.682,-0.127 2.598,-0.449 4.479,-0.449 0.273,0 0.545,0.011 0.813,0.026 l -12.838,-25.02 c -15.727,6.883 -37.132,14.091 -56.98,16.956 -31.126,4.492 -62.233,2.345 -88.924,-6.944 -27.719,-9.646 -51.9,-26.777 -67.753,-50.075 -1.601,-2.255 -3.12,-4.649 -4.54,-7.221 -0.02,-0.042 -0.044,-0.078 -0.066,-0.119 -0.021,-0.037 -0.041,-0.071 -0.059,-0.108 -1.577,-2.75 -3.042,-5.571 -4.387,-8.468 0.601,0.1 1.23,0.167 1.902,0.167 0.889,0 1.714,-0.101 2.48,-0.275 l 0.013,0.025 0.466,-0.204 c 8.973,20.603 22.615,31.446 41.784,38.402 8.298,2.748 16.244,3.872 21.218,1.46 l 0.006,0.002 C 99.27,445.302 95.806,443.151 92.48,440.807 17.175,387.763 1.196,280.785 56.782,201.865" /></g></g></svg>